  0
SECTION
  2
HEADER
  9
$ACADVER
  1
AC1015
  9
$ACADMAINTVER
 70
    20
  9
$DWGCODEPAGE
  3
ANSI_932
  9
$INSBASE
 10
0.0
 20
0.0
 30
0.0
  9
$EXTMIN
 10
-0.0000000113037686
 20
0.0000002998585273
 30
0.0
  9
$EXTMAX
 10
150.2507139186557
 20
147.1407010659757
 30
0.0
  9
$LIMMIN
 10
0.0
 20
0.0
  9
$LIMMAX
 10
297.0
 20
210.0
  9
$ORTHOMODE
 70
     1
  9
$REGENMODE
 70
     1
  9
$FILLMODE
 70
     1
  9
$QTEXTMODE
 70
     0
  9
$MIRRTEXT
 70
     1
  9
$LTSCALE
 40
1.0
  9
$ATTMODE
 70
     1
  9
$TEXTSIZE
 40
6.400000000000001
  9
$TRACEWID
 40
0.05
  9
$TEXTSTYLE
  7
STANDARD
  9
$CLAYER
  8
0
  9
$CELTYPE
  6
CONTINUOUS
  9
$CECOLOR
 62
     7
  9
$CELTSCALE
 40
1.0
  9
$DISPSILH
 70
     0
  9
$DIMSCALE
 40
1.0
  9
$DIMASZ
 40
3.0
  9
$DIMEXO
 40
1.0
  9
$DIMDLI
 40
0.0
  9
$DIMRND
 40
0.0
  9
$DIMDLE
 40
0.0
  9
$DIMEXE
 40
1.0
  9
$DIMTP
 40
0.0
  9
$DIMTM
 40
0.0
  9
$DIMTXT
 40
3.2
  9
$DIMCEN
 40
0.0
  9
$DIMTSZ
 40
0.0
  9
$DIMTOL
 70
     0
  9
$DIMLIM
 70
     0
  9
$DIMTIH
 70
     0
  9
$DIMTOH
 70
     0
  9
$DIMSE1
 70
     0
  9
$DIMSE2
 70
     0
  9
$DIMTAD
 70
     1
  9
$DIMZIN
 70
     8
  9
$DIMBLK
  1

  9
$DIMASO
 70
     1
  9
$DIMSHO
 70
     1
  9
$DIMPOST
  1

  9
$DIMAPOST
  1

  9
$DIMALT
 70
     0
  9
$DIMALTD
 70
     2
  9
$DIMALTF
 40
0.04
  9
$DIMLFAC
 40
1.0
  9
$DIMTOFL
 70
     1
  9
$DIMTVP
 40
1.0
  9
$DIMTIX
 70
     1
  9
$DIMSOXD
 70
     0
  9
$DIMSAH
 70
     0
  9
$DIMBLK1
  1

  9
$DIMBLK2
  1

  9
$DIMSTYLE
  2
MISUMI
  9
$DIMCLRD
 70
     0
  9
$DIMCLRE
 70
     0
  9
$DIMCLRT
 70
     0
  9
$DIMTFAC
 40
0.6
  9
$DIMGAP
 40
1.0
  9
$DIMJUST
 70
     0
  9
$DIMSD1
 70
     0
  9
$DIMSD2
 70
     0
  9
$DIMTOLJ
 70
     1
  9
$DIMTZIN
 70
     0
  9
$DIMALTZ
 70
     0
  9
$DIMALTTZ
 70
     0
  9
$DIMUPT
 70
     0
  9
$DIMDEC
 70
     4
  9
$DIMTDEC
 70
     4
  9
$DIMALTU
 70
     2
  9
$DIMALTTD
 70
     2
  9
$DIMTXSTY
  7
STANDARD
  9
$DIMAUNIT
 70
     0
  9
$DIMADEC
 70
     0
  9
$DIMALTRND
 40
0.0
  9
$DIMAZIN
 70
     0
  9
$DIMDSEP
 70
    46
  9
$DIMATFIT
 70
     3
  9
$DIMFRAC
 70
     0
  9
$DIMLDRBLK
  1

  9
$DIMLUNIT
 70
     2
  9
$DIMLWD
 70
    -2
  9
$DIMLWE
 70
    -2
  9
$DIMTMOVE
 70
     0
  9
$LUNITS
 70
     2
  9
$LUPREC
 70
     4
  9
$SKETCHINC
 40
0.1
  9
$FILLETRAD
 40
0.0
  9
$AUNITS
 70
     0
  9
$AUPREC
 70
     0
  9
$MENU
  1
acad
  9
$ELEVATION
 40
0.0
  9
$PELEVATION
 40
0.0
  9
$THICKNESS
 40
0.0
  9
$LIMCHECK
 70
     0
  9
$CHAMFERA
 40
0.5
  9
$CHAMFERB
 40
0.5
  9
$CHAMFERC
 40
0.0
  9
$CHAMFERD
 40
0.0
  9
$SKPOLY
 70
     0
  9
$TDCREATE
 40
2454133.637695718
  9
$TDUCREATE
 40
2454133.262695718
  9
$TDUPDATE
 40
2454230.684497859
  9
$TDUUPDATE
 40
2454230.309497859
  9
$TDINDWG
 40
0.0649681250
  9
$TDUSRTIMER
 40
0.0649666667
  9
$USRTIMER
 70
     1
  9
$ANGBASE
 50
0.0
  9
$ANGDIR
 70
     0
  9
$PDMODE
 70
     0
  9
$PDSIZE
 40
0.0
  9
$PLINEWID
 40
0.0
  9
$SPLFRAME
 70
     0
  9
$SPLINETYPE
 70
     6
  9
$SPLINESEGS
 70
     8
  9
$HANDSEED
  5
F1B
  9
$SURFTAB1
 70
     6
  9
$SURFTAB2
 70
     6
  9
$SURFTYPE
 70
     6
  9
$SURFU
 70
     6
  9
$SURFV
 70
     6
  9
$UCSBASE
  2

  9
$UCSNAME
  2

  9
$UCSORG
 10
0.0
 20
0.0
 30
0.0
  9
$UCSXDIR
 10
1.0
 20
0.0
 30
0.0
  9
$UCSYDIR
 10
0.0
 20
1.0
 30
0.0
  9
$UCSORTHOREF
  2

  9
$UCSORTHOVIEW
 70
     0
  9
$UCSORGTOP
 10
0.0
 20
0.0
 30
0.0
  9
$UCSORGBOTTOM
 10
0.0
 20
0.0
 30
0.0
  9
$UCSORGLEFT
 10
0.0
 20
0.0
 30
0.0
  9
$UCSORGRIGHT
 10
0.0
 20
0.0
 30
0.0
  9
$UCSORGFRONT
 10
0.0
 20
0.0
 30
0.0
  9
$UCSORGBACK
 10
0.0
 20
0.0
 30
0.0
  9
$PUCSBASE
  2

  9
$PUCSNAME
  2

  9
$PUCSORG
 10
0.0
 20
0.0
 30
0.0
  9
$PUCSXDIR
 10
1.0
 20
0.0
 30
0.0
  9
$PUCSYDIR
 10
0.0
 20
1.0
 30
0.0
  9
$PUCSORTHOREF
  2

  9
$PUCSORTHOVIEW
 70
     0
  9
$PUCSORGTOP
 10
0.0
 20
0.0
 30
0.0
  9
$PUCSORGBOTTOM
 10
0.0
 20
0.0
 30
0.0
  9
$PUCSORGLEFT
 10
0.0
 20
0.0
 30
0.0
  9
$PUCSORGRIGHT
 10
0.0
 20
0.0
 30
0.0
  9
$PUCSORGFRONT
 10
0.0
 20
0.0
 30
0.0
  9
$PUCSORGBACK
 10
0.0
 20
0.0
 30
0.0
  9
$USERI1
 70
     0
  9
$USERI2
 70
     0
  9
$USERI3
 70
     0
  9
$USERI4
 70
     0
  9
$USERI5
 70
     0
  9
$USERR1
 40
0.0
  9
$USERR2
 40
0.0
  9
$USERR3
 40
0.0
  9
$USERR4
 40
0.0
  9
$USERR5
 40
0.0
  9
$WORLDVIEW
 70
     1
  9
$SHADEDGE
 70
     3
  9
$SHADEDIF
 70
    70
  9
$TILEMODE
 70
     1
  9
$MAXACTVP
 70
    16
  9
$PINSBASE
 10
0.0
 20
0.0
 30
0.0
  9
$PLIMCHECK
 70
     0
  9
$PEXTMIN
 10
1.000000000000000E+20
 20
1.000000000000000E+20
 30
1.000000000000000E+20
  9
$PEXTMAX
 10
-1.000000000000000E+20
 20
-1.000000000000000E+20
 30
-1.000000000000000E+20
  9
$PLIMMIN
 10
0.0
 20
0.0
  9
$PLIMMAX
 10
12.0
 20
9.0
  9
$UNITMODE
 70
     0
  9
$VISRETAIN
 70
     0
  9
$PLINEGEN
 70
     0
  9
$PSLTSCALE
 70
     1
  9
$TREEDEPTH
 70
  3020
  9
$CMLSTYLE
  2
Standard
  9
$CMLJUST
 70
     0
  9
$CMLSCALE
 40
1.0
  9
$PROXYGRAPHICS
 70
     1
  9
$MEASUREMENT
 70
     0
  9
$CELWEIGHT
370
    -1
  9
$ENDCAPS
280
     0
  9
$JOINSTYLE
280
     0
  9
$LWDISPLAY
290
     0
  9
$INSUNITS
 70
     0
  9
$HYPERLINKBASE
  1

  9
$STYLESHEET
  1

  9
$XEDIT
290
     1
  9
$CEPSNTYPE
380
     0
  9
$PSTYLEMODE
290
     1
  9
$FINGERPRINTGUID
  2
{DACE8966-548E-4714-AA74-791A672875E7}
  9
$VERSIONGUID
  2
{D3982903-21DA-45DA-A8EB-CE005AD63EE6}
  9
$EXTNAMES
290
     1
  9
$PSVPSCALE
 40
0.0
  9
$OLESTARTUP
290
     0
  0
ENDSEC
  0
SECTION
  2
CLASSES
  0
CLASS
  1
ACDBDICTIONARYWDFLT
  2
AcDbDictionaryWithDefault
  3
ObjectDBX Classes
 90
        0
280
     0
281
     0
  0
CLASS
  1
MATERIAL
  2
AcDbMaterial
  3
ObjectDBX Classes
 90
     1024
280
     0
281
     0
  0
CLASS
  1
VISUALSTYLE
  2
AcDbVisualStyle
  3
ObjectDBX Classes
 90
     4095
280
     0
281
     0
  0
CLASS
  1
TABLESTYLE
  2
AcDbTableStyle
  3
ObjectDBX Classes
 90
     4095
280
     0
281
     0
  0
CLASS
  1
DICTIONARYVAR
  2
AcDbDictionaryVar
  3
ObjectDBX Classes
 90
        0
280
     0
281
     0
  0
CLASS
  1
SORTENTSTABLE
  2
AcDbSortentsTable
  3
ObjectDBX Classes
 90
        0
280
     0
281
     0
  0
CLASS
  1
ACDBPLACEHOLDER
  2
AcDbPlaceHolder
  3
ObjectDBX Classes
 90
        0
280
     0
281
     0
  0
CLASS
  1
LAYOUT
  2
AcDbLayout
  3
ObjectDBX Classes
 90
        0
280
     0
281
     0
  0
ENDSEC
  0
SECTION
  2
TABLES
  0
TABLE
  2
VPORT
  5
B81
330
0
100
AcDbSymbolTable
 70
     1
  0
VPORT
  5
BB3
330
B81
100
AcDbSymbolTableRecord
100
AcDbViewportTableRecord
  2
*ACTIVE
 70
     0
 10
0.0
 20
0.0
 11
1.0
 21
1.0
 12
91.45441132786789
 22
94.12663622853402
 13
0.0
 23
0.0
 14
10.0
 24
10.0
 15
10.0
 25
10.0
 16
0.0
 26
0.0
 36
1.0
 17
0.0
 27
0.0
 37
0.0
 40
230.7136967917478
 41
1.22560975609756
 42
50.0
 43
0.0
 44
0.0
 50
0.0
 51
0.0
 71
     0
 72
   100
 73
     1
 74
     0
 75
     0
 76
     0
 77
     0
 78
     0
281
     0
 65
     1
110
0.0
120
0.0
130
0.0
111
1.0
121
0.0
131
0.0
112
0.0
122
1.0
132
0.0
 79
     0
146
0.0
  0
ENDTAB
  0
TABLE
  2
LTYPE
  5
B7E
330
0
100
AcDbSymbolTable
 70
     3
  0
LTYPE
  5
BA1
330
B7E
100
AcDbSymbolTableRecord
100
AcDbLinetypeTableRecord
  2
ByBlock
 70
     0
  3

 72
    65
 73
     0
 40
0.0
  0
LTYPE
  5
BA2
330
B7E
100
AcDbSymbolTableRecord
100
AcDbLinetypeTableRecord
  2
ByLayer
 70
     0
  3

 72
    65
 73
     0
 40
0.0
  0
LTYPE
  5
BA3
330
B7E
100
AcDbSymbolTableRecord
100
AcDbLinetypeTableRecord
  2
CONTINUOUS
 70
     0
  3
Solid line
 72
    65
 73
     0
 40
0.0
  0
LTYPE
  5
BB4
330
B7E
100
AcDbSymbolTableRecord
100
AcDbLinetypeTableRecord
  2
CENTER
 70
     0
  3
Center ____ _ ____ _ ____ _ ____ _ ____ _ ____
 72
    65
 73
     4
 40
2.0
 49
1.25
 74
     0
 49
-0.25
 74
     0
 49
0.25
 74
     0
 49
-0.25
 74
     0
  0
LTYPE
  5
BB5
330
B7E
100
AcDbSymbolTableRecord
100
AcDbLinetypeTableRecord
  2
DASHED
 70
     0
  3
Dashed __ __ __ __ __ __ __ __ __ __ __ __ __ _
 72
    65
 73
     2
 40
0.75
 49
0.5
 74
     0
 49
-0.25
 74
     0
  0
ENDTAB
  0
TABLE
  2
LAYER
  5
B7B
330
0
100
AcDbSymbolTable
 70
     3
  0
LAYER
  5
B9E
330
B7B
100
AcDbSymbolTableRecord
100
AcDbLayerTableRecord
  2
0
 70
     0
 62
     7
  6
CONTINUOUS
370
    -3
390
B88
  0
LAYER
  5
BB6
330
B7B
100
AcDbSymbolTableRecord
100
AcDbLayerTableRecord
  2
CENTER
 70
     0
 62
     1
  6
CENTER
370
    -3
390
B88
  0
LAYER
  5
BB7
330
B7B
100
AcDbSymbolTableRecord
100
AcDbLayerTableRecord
  2
DEFPOINTS
 70
     0
 62
     7
  6
CONTINUOUS
290
     0
370
    -3
390
B88
  0
ENDTAB
  0
TABLE
  2
STYLE
  5
B7C
330
0
100
AcDbSymbolTable
 70
     1
  0
STYLE
  5
B9F
330
B7C
100
AcDbSymbolTableRecord
100
AcDbTextStyleTableRecord
  2
STANDARD
 70
     0
 40
0.0
 41
1.0
 50
0.0
 71
     0
 42
6.400000000000001
  3
txt
  4

  0
ENDTAB
  0
TABLE
  2
VIEW
  5
B7F
330
0
100
AcDbSymbolTable
 70
     0
  0
ENDTAB
  0
TABLE
  2
UCS
  5
B80
330
0
100
AcDbSymbolTable
 70
     0
  0
ENDTAB
  0
TABLE
  2
APPID
  5
B82
330
0
100
AcDbSymbolTable
 70
     4
  0
APPID
  5
BA0
330
B82
100
AcDbSymbolTableRecord
100
AcDbRegAppTableRecord
  2
ACAD
 70
     0
  0
APPID
  5
BB8
330
B82
100
AcDbSymbolTableRecord
100
AcDbRegAppTableRecord
  2
ACAD_DSTYLE_DIMTEXT_FILL
 70
     0
  0
APPID
  5
BB9
330
B82
100
AcDbSymbolTableRecord
100
AcDbRegAppTableRecord
  2
ACDBBLOCKREPETAG
 70
     0
  0
APPID
  5
BBA
330
B82
100
AcDbSymbolTableRecord
100
AcDbRegAppTableRecord
  2
ACAD_PSEXT
 70
     0
  0
ENDTAB
  0
TABLE
  2
DIMSTYLE
  5
B83
330
0
100
AcDbSymbolTable
 70
     1
100
AcDbDimStyleTable
 71
     1
340
BBB
  0
DIMSTYLE
105
BBB
330
B83
100
AcDbSymbolTableRecord
100
AcDbDimStyleTableRecord
  2
MISUMI
 70
     0
 41
3.0
 42
1.0
 43
0.0
 44
1.0
 73
     0
 74
     0
 77
     1
 78
     8
140
3.2
141
0.0
143
0.04
145
1.0
146
0.6
147
1.0
172
     1
174
     1
279
     2
284
     8
285
     8
286
     8
340
B9F
  0
ENDTAB
  0
TABLE
  2
BLOCK_RECORD
  5
B7A
330
0
100
AcDbSymbolTable
 70
     5
  0
BLOCK_RECORD
  5
BAF
102
{ACAD_XDICTIONARY
360
C74
102
}
330
B7A
100
AcDbSymbolTableRecord
100
AcDbBlockTableRecord
  2
*Model_Space
340
BB2
  0
BLOCK_RECORD
  5
BAB
330
B7A
100
AcDbSymbolTableRecord
100
AcDbBlockTableRecord
  2
*Paper_Space
340
BAE
  0
BLOCK_RECORD
  5
BBD
330
B7A
100
AcDbSymbolTableRecord
100
AcDbBlockTableRecord
  2
$MODEL_SPACE
340
0
  0
BLOCK_RECORD
  5
BBF
330
B7A
100
AcDbSymbolTableRecord
100
AcDbBlockTableRecord
  2
$PAPER_SPACE
340
0
  0
BLOCK_RECORD
  5
EDF
330
B7A
100
AcDbSymbolTableRecord
100
AcDbBlockTableRecord
  2
*D3
340
0
  0
BLOCK_RECORD
  5
F06
330
B7A
100
AcDbSymbolTableRecord
100
AcDbBlockTableRecord
  2
*D4
340
0
  0
ENDTAB
  0
ENDSEC
  0
SECTION
  2
BLOCKS
  0
BLOCK
  5
BB0
330
BAF
100
AcDbEntity
  8
0
100
AcDbBlockBegin
  2
*Model_Space
 70
     0
 10
0.0
 20
0.0
 30
0.0
  3
*Model_Space
  1

  0
ENDBLK
  5
BB1
330
BAF
100
AcDbEntity
  8
0
100
AcDbBlockEnd
  0
BLOCK
  5
BAC
330
BAB
100
AcDbEntity
 67
     1
  8
0
100
AcDbBlockBegin
  2
*Paper_Space
 70
     0
 10
0.0
 20
0.0
 30
0.0
  3
*Paper_Space
  1

  0
ENDBLK
  5
BAD
330
BAB
100
AcDbEntity
 67
     1
  8
0
100
AcDbBlockEnd
  0
BLOCK
  5
BBE
330
BBD
100
AcDbEntity
  8
0
100
AcDbBlockBegin
  2
$MODEL_SPACE
 70
     0
 10
0.0
 20
0.0
 30
0.0
  3
$MODEL_SPACE
  1

  0
ENDBLK
  5
43D
330
BBD
100
AcDbEntity
  8
0
100
AcDbBlockEnd
  0
BLOCK
  5
BC0
330
BBF
100
AcDbEntity
  8
0
100
AcDbBlockBegin
  2
$PAPER_SPACE
 70
     0
 10
0.0
 20
0.0
 30
0.0
  3
$PAPER_SPACE
  1

  0
ENDBLK
  5
439
330
BBF
100
AcDbEntity
  8
0
100
AcDbBlockEnd
  0
BLOCK
  5
EEB
330
EDF
100
AcDbEntity
  8
0
 62
     7
100
AcDbBlockBegin
  2
*D3
 70
     1
 10
0.0
 20
0.0
 30
0.0
  3
*D3
  1

  0
LINE
  5
EE0
330
EDF
100
AcDbEntity
  8
0
  6
Continuous
 62
     0
370
    -2
100
AcDbLine
 10
57.10000014040416
 20
140.0435976692638
 30
0.0
 11
57.10000014040416
 21
143.9407010659757
 31
0.0
  0
LINE
  5
EE1
330
EDF
100
AcDbEntity
  8
0
  6
Continuous
 62
     0
370
    -2
100
AcDbLine
 10
62.90000014040415
 20
140.0435976692638
 30
0.0
 11
62.90000014040415
 21
143.9407010659757
 31
0.0
  0
LINE
  5
EE2
330
EDF
100
AcDbEntity
  8
0
  6
Continuous
 62
     0
370
    -2
100
AcDbLine
 10
54.10000014040416
 20
142.9407010659757
 30
0.0
 11
51.10000014040416
 21
142.9407010659757
 31
0.0
  0
LINE
  5
EE3
330
EDF
100
AcDbEntity
  8
0
  6
Continuous
 62
     0
370
    -2
100
AcDbLine
 10
65.90000014040416
 20
142.9407010659757
 30
0.0
 11
68.90000014040416
 21
142.9407010659757
 31
0.0
  0
LINE
  5
EE4
330
EDF
100
AcDbEntity
  8
0
  6
Continuous
 62
     0
370
    -2
100
AcDbLine
 10
57.10000014040416
 20
142.9407010659757
 30
0.0
 11
62.90000014040415
 21
142.9407010659757
 31
0.0
  0
SOLID
  5
EE5
330
EDF
100
AcDbEntity
  8
0
  6
Continuous
 62
     0
100
AcDbTrace
 10
54.10000014040416
 20
143.4407010659757
 30
0.0
 11
54.10000014040416
 21
142.4407010659757
 31
0.0
 12
57.10000014040416
 22
142.9407010659757
 32
0.0
 13
57.10000014040416
 23
142.9407010659757
 33
0.0
  0
SOLID
  5
EE6
330
EDF
100
AcDbEntity
  8
0
  6
Continuous
 62
     0
100
AcDbTrace
 10
65.90000014040416
 20
143.4407010659757
 30
0.0
 11
65.90000014040416
 21
142.4407010659757
 31
0.0
 12
62.90000014040415
 22
142.9407010659757
 32
0.0
 13
62.90000014040415
 23
142.9407010659757
 33
0.0
  0
MTEXT
  5
EE7
330
EDF
100
AcDbEntity
  8
0
  6
Continuous
 62
     0
100
AcDbMText
 10
60.00000014040415
 20
145.5407010659757
 30
0.0
 40
3.2
 41
0.0
 71
     5
 72
     1
  1
\A1;5.8
 73
     1
 44
1.0
1001
ACAD
1000
MTEXTBEGIN
1070
    73
1070
     1
1070
    44
1040
1.0
1070
    74
1070
     0
1000
MTEXTEND
  0
POINT
  5
EE8
330
EDF
100
AcDbEntity
  8
DEFPOINTS
  6
Continuous
 62
     0
100
AcDbPoint
 10
57.10000014040416
 20
139.0435976692638
 30
0.0
  0
POINT
  5
EE9
330
EDF
100
AcDbEntity
  8
DEFPOINTS
  6
Continuous
 62
     0
100
AcDbPoint
 10
62.90000014040415
 20
139.0435976692638
 30
0.0
  0
POINT
  5
EEA
330
EDF
100
AcDbEntity
  8
DEFPOINTS
  6
Continuous
 62
     0
100
AcDbPoint
 10
62.90000014040415
 20
142.9407010659757
 30
0.0
  0
ENDBLK
  5
EEC
330
EDF
100
AcDbEntity
  8
0
 62
     7
100
AcDbBlockEnd
  0
BLOCK
  5
F12
330
F06
100
AcDbEntity
  8
0
 62
     7
100
AcDbBlockBegin
  2
*D4
 70
     1
 10
0.0
 20
0.0
 30
0.0
  3
*D4
  1

  0
LINE
  5
F07
330
F06
100
AcDbEntity
  8
0
  6
Continuous
 62
     0
370
    -2
100
AcDbLine
 10
56.20000014040416
 20
139.0435976692638
 30
0.0
 11
53.66119972696856
 21
139.0435976692638
 31
0.0
  0
LINE
  5
F08
330
F06
100
AcDbEntity
  8
0
  6
Continuous
 62
     0
370
    -2
100
AcDbLine
 10
56.40000014040414
 20
138.0435976692638
 30
0.0
 11
53.66119972696856
 21
138.0435976692638
 31
0.0
  0
LINE
  5
F09
330
F06
100
AcDbEntity
  8
0
  6
Continuous
 62
     0
370
    -2
100
AcDbLine
 10
54.66119972696856
 20
142.0435976692638
 30
0.0
 11
54.66119972696857
 21
145.0435976692638
 31
0.0
  0
LINE
  5
F0A
330
F06
100
AcDbEntity
  8
0
  6
Continuous
 62
     0
370
    -2
100
AcDbLine
 10
54.66119972696856
 20
135.0435976692638
 30
0.0
 11
54.66119972696856
 21
132.0435976692638
 31
0.0
  0
LINE
  5
F0B
330
F06
100
AcDbEntity
  8
0
  6
Continuous
 62
     0
370
    -2
100
AcDbLine
 10
54.66119972696856
 20
139.0435976692638
 30
0.0
 11
54.66119972696856
 21
138.0435976692638
 31
0.0
  0
SOLID
  5
F0C
330
F06
100
AcDbEntity
  8
0
  6
Continuous
 62
     0
100
AcDbTrace
 10
54.16119972696856
 20
142.0435976692638
 30
0.0
 11
55.16119972696856
 21
142.0435976692638
 31
0.0
 12
54.66119972696856
 22
139.0435976692638
 32
0.0
 13
54.66119972696856
 23
139.0435976692638
 33
0.0
  0
SOLID
  5
F0D
330
F06
100
AcDbEntity
  8
0
  6
Continuous
 62
     0
100
AcDbTrace
 10
54.16119972696856
 20
135.0435976692638
 30
0.0
 11
55.16119972696856
 21
135.0435976692638
 31
0.0
 12
54.66119972696856
 22
138.0435976692638
 32
0.0
 13
54.66119972696856
 23
138.0435976692638
 33
0.0
  0
MTEXT
  5
F0E
330
F06
100
AcDbEntity
  8
0
  6
Continuous
 62
     0
100
AcDbMText
 10
52.06119972696853
 20
138.5435976692638
 30
0.0
 40
3.2
 41
0.0
 71
     5
 72
     1
  1
\A1;1
 11
0.0000000000000001
 21
1.0
 31
0.0
 73
     1
 44
1.0
1001
ACAD
1000
MTEXTBEGIN
1070
    73
1070
     1
1070
    44
1040
1.0
1070
    74
1070
     0
1000
MTEXTEND
  0
POINT
  5
F0F
330
F06
100
AcDbEntity
  8
DEFPOINTS
  6
Continuous
 62
     0
100
AcDbPoint
 10
57.20000014040416
 20
139.0435976692638
 30
0.0
  0
POINT
  5
F10
330
F06
100
AcDbEntity
  8
DEFPOINTS
  6
Continuous
 62
     0
100
AcDbPoint
 10
57.40000014040415
 20
138.0435976692638
 30
0.0
  0
POINT
  5
F11
330
F06
100
AcDbEntity
  8
DEFPOINTS
  6
Continuous
 62
     0
100
AcDbPoint
 10
54.66119972696856
 20
138.0435976692638
 30
0.0
  0
ENDBLK
  5
F13
330
F06
100
AcDbEntity
  8
0
 62
     7
100
AcDbBlockEnd
  0
ENDSEC
  0
SECTION
  2
ENTITIES
  0
LINE
  5
6DE
330
BAF
100
AcDbEntity
  8
0
  6
Continuous
 62
     7
100
AcDbLine
 10
90.00000014040415
 20
80.000000433331
 30
0.0
 11
90.00000014040415
 21
50.00000043333102
 31
0.0
  0
LINE
  5
6DF
330
BAF
100
AcDbEntity
  8
0
  6
Continuous
 62
     7
100
AcDbLine
 10
87.50000014040415
 20
80.000000433331
 30
0.0
 11
87.50000014040415
 21
54.50000043333102
 31
0.0
  0
LINE
  5
6E0
330
BAF
100
AcDbEntity
  8
0
  6
Continuous
 62
     7
100
AcDbLine
 10
50.00000014040414
 20
54.50000043333102
 30
0.0
 11
90.00000014040415
 21
54.50000043333102
 31
0.0
  0
LINE
  5
6E1
330
BAF
100
AcDbEntity
  8
0
  6
Continuous
 62
     7
100
AcDbLine
 10
50.00000014040414
 20
50.00000043333097
 30
0.0
 11
90.00000014040415
 21
50.00000043333102
 31
0.0
  0
LINE
  5
6E2
330
BAF
100
AcDbEntity
  8
0
  6
Continuous
 62
     7
100
AcDbLine
 10
50.00000014040415
 20
80.00000043333107
 30
0.0
 11
50.00000014040414
 21
50.00000043333097
 31
0.0
  0
LINE
  5
6E3
330
BAF
100
AcDbEntity
  8
0
  6
Continuous
 62
     7
100
AcDbLine
 10
52.50000014040415
 20
80.000000433331
 30
0.0
 11
52.50000014040415
 21
54.50000043333102
 31
0.0
  0
CIRCLE
  5
6E4
330
BAF
100
AcDbEntity
  8
0
  6
Continuous
 62
     7
100
AcDbCircle
 10
60.00000014040415
 20
68.00000043333104
 30
0.0
 40
2.599999999999992
  0
CIRCLE
  5
6E5
330
BAF
100
AcDbEntity
  8
0
  6
Continuous
 62
     7
100
AcDbCircle
 10
80.00000014040415
 20
68.00000043333104
 30
0.0
 40
2.599999999999992
  0
LINE
  5
6E6
330
BAF
100
AcDbEntity
  8
0
  6
Continuous
 62
     7
100
AcDbLine
 10
50.00000014040415
 20
80.00000043333107
 30
0.0
 11
90.00000014040415
 21
80.000000433331
 31
0.0
  0
LINE
  5
6E7
330
BAF
100
AcDbEntity
  8
0
  6
Continuous
 62
     7
100
AcDbLine
 10
144.6507139186556
 20
80.000000433331
 30
0.0
 11
119.1507139186556
 21
54.50000043333102
 31
0.0
  0
LINE
  5
6E8
330
BAF
100
AcDbEntity
  8
0
  6
Continuous
 62
     7
100
AcDbLine
 10
149.1507139186555
 20
80.000000433331
 30
0.0
 11
144.6507139186556
 21
80.000000433331
 31
0.0
  0
LINE
  5
6E9
330
BAF
100
AcDbEntity
  8
0
  6
Continuous
 62
     7
100
AcDbLine
 10
119.1507139186556
 20
54.50000043333102
 30
0.0
 11
119.1507139186556
 21
50.00000043333102
 31
0.0
  0
LINE
  5
6EA
330
BAF
100
AcDbEntity
  8
0
  6
Continuous
 62
     7
100
AcDbLine
 10
149.1507139186555
 20
50.00000043333102
 30
0.0
 11
149.1507139186555
 21
80.000000433331
 31
0.0
  0
LINE
  5
6EB
330
BAF
100
AcDbEntity
  8
0
  6
Continuous
 62
     7
100
AcDbLine
 10
119.1507139186556
 20
50.00000043333102
 30
0.0
 11
149.1507139186555
 21
50.00000043333102
 31
0.0
  0
LINE
  5
6EC
330
BAF
100
AcDbEntity
  8
0
  6
Continuous
 62
     7
100
AcDbLine
 10
50.00000014040415
 20
133.5435976692638
 30
0.0
 11
90.00000014040415
 21
133.5435976692637
 31
0.0
  0
LINE
  5
6ED
330
BAF
100
AcDbEntity
  8
0
  6
Continuous
 62
     7
100
AcDbLine
 10
50.00000014040415
 20
138.0435976692638
 30
0.0
 11
50.00000014040414
 21
108.0435976692638
 31
0.0
  0
LINE
  5
6EE
330
BAF
100
AcDbEntity
  8
0
  6
Continuous
 62
     7
100
AcDbLine
 10
50.00000014040415
 20
138.0435976692638
 30
0.0
 11
90.00000014040415
 21
138.0435976692638
 31
0.0
  0
LINE
  5
6EF
330
BAF
100
AcDbEntity
  8
0
  6
Continuous
 62
     7
100
AcDbLine
 10
90.00000014040415
 20
138.0435976692638
 30
0.0
 11
90.00000014040415
 21
108.0435976692639
 31
0.0
  0
LINE
  5
6F0
330
BAF
100
AcDbEntity
  8
0
  6
Continuous
 62
     7
100
AcDbLine
 10
52.50000014040415
 20
133.5435976692638
 30
0.0
 11
52.50000014040415
 21
108.0435976692639
 31
0.0
  0
LINE
  5
6F1
330
BAF
100
AcDbEntity
  8
0
  6
Continuous
 62
     7
100
AcDbLine
 10
87.50000014040415
 20
133.5435976692638
 30
0.0
 11
87.50000014040415
 21
108.0435976692639
 31
0.0
  0
CIRCLE
  5
6F2
330
BAF
100
AcDbEntity
  8
0
  6
Continuous
 62
     7
100
AcDbCircle
 10
80.00000014040415
 20
128.0435976692638
 30
0.0
 40
2.599999999999992
  0
CIRCLE
  5
6F3
330
BAF
100
AcDbEntity
  8
0
  6
Continuous
 62
     7
100
AcDbCircle
 10
80.00000014040415
 20
120.0435976692638
 30
0.0
 40
2.60000000000002
  0
LINE
  5
6F4
330
BAF
100
AcDbEntity
  8
0
  6
Continuous
 62
     7
100
AcDbLine
 10
50.00000014040414
 20
108.0435976692638
 30
0.0
 11
90.00000014040415
 21
108.0435976692639
 31
0.0
  0
CIRCLE
  5
6F5
330
BAF
100
AcDbEntity
  8
0
  6
Continuous
 62
     7
100
AcDbCircle
 10
60.00000014040415
 20
120.0435976692638
 30
0.0
 40
2.60000000000002
  0
CIRCLE
  5
6F6
330
BAF
100
AcDbEntity
  8
0
  6
Continuous
 62
     7
100
AcDbCircle
 10
60.00000014040415
 20
128.0435976692638
 30
0.0
 40
2.599999999999992
  0
TEXT
  5
6F7
330
BAF
100
AcDbEntity
  8
0
  6
Continuous
 62
     7
100
AcDbText
 10
-0.0000000113037686
 20
8.598712185374946
 30
0.0
 40
4.0
  1
HBLFSD5
100
AcDbText
  0
TEXT
  5
6F8
330
BAF
100
AcDbEntity
  8
0
  6
Continuous
 62
     7
100
AcDbText
 10
-0.0000000113037686
 20
0.0000002998585273
 30
0.0
 40
4.0
  1
HBLFSD5
100
AcDbText
  0
LINE
  5
6F9
330
BAF
100
AcDbEntity
  8
CENTER
  6
CENTER
 62
     1
100
AcDbLine
 10
56.40000014040417
 20
68.00000043333104
 30
0.0
 11
63.60000014040416
 21
68.00000043333104
 31
0.0
  0
LINE
  5
6FA
330
BAF
100
AcDbEntity
  8
CENTER
  6
CENTER
 62
     1
100
AcDbLine
 10
60.00000014040416
 20
71.60000043333102
 30
0.0
 11
60.00000014040416
 21
64.40000043333103
 31
0.0
  0
LINE
  5
6FB
330
BAF
100
AcDbEntity
  8
CENTER
  6
CENTER
 62
     1
100
AcDbLine
 10
76.40000014040419
 20
68.00000043333104
 30
0.0
 11
83.60000014040416
 21
68.00000043333104
 31
0.0
  0
LINE
  5
6FC
330
BAF
100
AcDbEntity
  8
CENTER
  6
CENTER
 62
     1
100
AcDbLine
 10
80.00000014040415
 20
71.60000043333102
 30
0.0
 11
80.00000014040415
 21
64.40000043333103
 31
0.0
  0
LINE
  5
6FD
330
BAF
100
AcDbEntity
  8
CENTER
  6
CENTER
 62
     1
100
AcDbLine
 10
133.5507139186556
 20
62.00000043333102
 30
0.0
 11
140.7507139186556
 21
62.00000043333102
 31
0.0
  0
LINE
  5
6FE
330
BAF
100
AcDbEntity
  8
CENTER
  6
CENTER
 62
     1
100
AcDbLine
 10
137.1507139186556
 20
65.60000043333102
 30
0.0
 11
137.1507139186556
 21
58.40000043333103
 31
0.0
  0
LINE
  5
6FF
330
BAF
100
AcDbEntity
  8
CENTER
  6
CENTER
 62
     1
100
AcDbLine
 10
56.40000014040416
 20
120.0435976692638
 30
0.0
 11
63.60000014040415
 21
120.0435976692638
 31
0.0
  0
LINE
  5
700
330
BAF
100
AcDbEntity
  8
CENTER
  6
CENTER
 62
     1
100
AcDbLine
 10
60.00000014040415
 20
123.6435976692638
 30
0.0
 11
60.00000014040415
 21
116.4435976692638
 31
0.0
  0
LINE
  5
701
330
BAF
100
AcDbEntity
  8
CENTER
  6
CENTER
 62
     1
100
AcDbLine
 10
56.40000014040416
 20
128.0435976692638
 30
0.0
 11
63.60000014040415
 21
128.0435976692638
 31
0.0
  0
LINE
  5
702
330
BAF
100
AcDbEntity
  8
CENTER
  6
CENTER
 62
     1
100
AcDbLine
 10
60.00000014040415
 20
131.6435976692638
 30
0.0
 11
60.00000014040415
 21
124.4435976692638
 31
0.0
  0
LINE
  5
703
330
BAF
100
AcDbEntity
  8
CENTER
  6
CENTER
 62
     1
100
AcDbLine
 10
76.40000014040416
 20
128.0435976692638
 30
0.0
 11
83.60000014040414
 21
128.0435976692638
 31
0.0
  0
LINE
  5
704
330
BAF
100
AcDbEntity
  8
CENTER
  6
CENTER
 62
     1
100
AcDbLine
 10
80.00000014040415
 20
131.6435976692638
 30
0.0
 11
80.00000014040415
 21
124.4435976692638
 31
0.0
  0
LINE
  5
705
330
BAF
100
AcDbEntity
  8
CENTER
  6
CENTER
 62
     1
100
AcDbLine
 10
76.40000014040416
 20
120.0435976692638
 30
0.0
 11
83.60000014040414
 21
120.0435976692638
 31
0.0
  0
LINE
  5
706
330
BAF
100
AcDbEntity
  8
CENTER
  6
CENTER
 62
     1
100
AcDbLine
 10
80.00000014040415
 20
123.6435976692638
 30
0.0
 11
80.00000014040415
 21
116.4435976692638
 31
0.0
  0
LINE
  5
70E
330
BAF
100
AcDbEntity
  8
CENTER
  6
CENTER
 62
     1
100
AcDbLine
 10
91.00000014040416
 20
126.0435976692638
 30
0.0
 11
86.50000014040415
 21
126.0435976692637
 31
0.0
  0
LINE
  5
70F
330
BAF
100
AcDbEntity
  8
0
  6
DASHED
 62
     3
100
AcDbLine
 10
90.00000014040415
 20
128.5435976692638
 30
0.0
 11
87.50000014040415
 21
128.5435976692638
 31
0.0
  0
LINE
  5
710
330
BAF
100
AcDbEntity
  8
0
  6
DASHED
 62
     3
100
AcDbLine
 10
90.00000014040415
 20
123.5435976692638
 30
0.0
 11
87.50000014040415
 21
123.5435976692637
 31
0.0
  0
LINE
  5
711
330
BAF
100
AcDbEntity
  8
0
  6
DASHED
 62
     3
100
AcDbLine
 10
90.00000014040415
 20
128.1935976692638
 30
0.0
 11
87.50000014040415
 21
128.1935976692638
 31
0.0
  0
LINE
  5
712
330
BAF
100
AcDbEntity
  8
0
  6
DASHED
 62
     3
100
AcDbLine
 10
90.00000014040415
 20
123.8935976692638
 30
0.0
 11
87.50000014040415
 21
123.8935976692638
 31
0.0
  0
LINE
  5
713
330
BAF
100
AcDbEntity
  8
CENTER
  6
CENTER
 62
     1
100
AcDbLine
 10
49.00000014040415
 20
126.0435976692638
 30
0.0
 11
53.50000014040414
 21
126.0435976692637
 31
0.0
  0
LINE
  5
714
330
BAF
100
AcDbEntity
  8
0
  6
DASHED
 62
     3
100
AcDbLine
 10
50.00000014040415
 20
128.5435976692638
 30
0.0
 11
52.50000014040414
 21
128.5435976692638
 31
0.0
  0
LINE
  5
715
330
BAF
100
AcDbEntity
  8
0
  6
DASHED
 62
     3
100
AcDbLine
 10
50.00000014040415
 20
123.5435976692638
 30
0.0
 11
52.50000014040414
 21
123.5435976692637
 31
0.0
  0
LINE
  5
716
330
BAF
100
AcDbEntity
  8
0
  6
DASHED
 62
     3
100
AcDbLine
 10
50.00000014040415
 20
128.1935976692638
 30
0.0
 11
52.50000014040414
 21
128.1935976692638
 31
0.0
  0
LINE
  5
717
330
BAF
100
AcDbEntity
  8
0
  6
DASHED
 62
     3
100
AcDbLine
 10
50.00000014040415
 20
123.8935976692638
 30
0.0
 11
52.50000014040414
 21
123.8935976692638
 31
0.0
  0
LINE
  5
719
330
BAF
100
AcDbEntity
  8
0
  6
DASHED
 62
     3
100
AcDbLine
 10
57.40000014040415
 20
138.0435976692638
 30
0.0
 11
57.40000014040416
 21
133.5435976692638
 31
0.0
  0
LINE
  5
71A
330
BAF
100
AcDbEntity
  8
0
  6
DASHED
 62
     3
100
AcDbLine
 10
62.60000014040414
 20
138.0435976692638
 30
0.0
 11
62.60000014040414
 21
133.5435976692638
 31
0.0
  0
LINE
  5
71B
330
BAF
100
AcDbEntity
  8
CENTER
  6
CENTER
 62
     1
100
AcDbLine
 10
60.00000014040415
 20
139.6628656710268
 30
0.0
 11
60.00000014040415
 21
132.4435976692638
 31
0.0
  0
LINE
  5
71C
330
BAF
100
AcDbEntity
  8
0
  6
DASHED
 62
     3
100
AcDbLine
 10
77.40000014040416
 20
138.0435976692638
 30
0.0
 11
77.40000014040416
 21
133.5435976692637
 31
0.0
  0
LINE
  5
71D
330
BAF
100
AcDbEntity
  8
0
  6
DASHED
 62
     3
100
AcDbLine
 10
82.60000014040416
 20
138.0435976692638
 30
0.0
 11
82.60000014040413
 21
133.5435976692638
 31
0.0
  0
LINE
  5
71E
330
BAF
100
AcDbEntity
  8
CENTER
  6
CENTER
 62
     1
100
AcDbLine
 10
80.00000014040415
 20
139.6628656710268
 30
0.0
 11
80.00000014040415
 21
132.4435976692638
 31
0.0
  0
LINE
  5
71F
330
BAF
100
AcDbEntity
  8
CENTER
  6
CENTER
 62
     1
100
AcDbLine
 10
91.00000014040416
 20
62.00000043333102
 30
0.0
 11
86.50000014040415
 21
62.00000043333098
 31
0.0
  0
LINE
  5
720
330
BAF
100
AcDbEntity
  8
0
  6
DASHED
 62
     3
100
AcDbLine
 10
90.00000014040415
 20
64.50000043333102
 30
0.0
 11
87.50000014040415
 21
64.50000043333102
 31
0.0
  0
LINE
  5
721
330
BAF
100
AcDbEntity
  8
0
  6
DASHED
 62
     3
100
AcDbLine
 10
90.00000014040415
 20
59.50000043333102
 30
0.0
 11
87.50000014040415
 21
59.50000043333098
 31
0.0
  0
LINE
  5
722
330
BAF
100
AcDbEntity
  8
0
  6
DASHED
 62
     3
100
AcDbLine
 10
90.00000014040415
 20
64.150000433331
 30
0.0
 11
87.50000014040415
 21
64.150000433331
 31
0.0
  0
LINE
  5
723
330
BAF
100
AcDbEntity
  8
0
  6
DASHED
 62
     3
100
AcDbLine
 10
90.00000014040415
 20
59.85000043333105
 30
0.0
 11
87.50000014040415
 21
59.85000043333108
 31
0.0
  0
LINE
  5
724
330
BAF
100
AcDbEntity
  8
CENTER
  6
CENTER
 62
     1
100
AcDbLine
 10
53.50000014040414
 20
62.00000043333102
 30
0.0
 11
49.00000014040415
 21
62.00000043333098
 31
0.0
  0
LINE
  5
725
330
BAF
100
AcDbEntity
  8
0
  6
DASHED
 62
     3
100
AcDbLine
 10
52.50000014040415
 20
64.50000043333102
 30
0.0
 11
50.00000014040416
 21
64.50000043333102
 31
0.0
  0
LINE
  5
726
330
BAF
100
AcDbEntity
  8
0
  6
DASHED
 62
     3
100
AcDbLine
 10
52.50000014040415
 20
59.50000043333102
 30
0.0
 11
50.00000014040416
 21
59.50000043333098
 31
0.0
  0
LINE
  5
727
330
BAF
100
AcDbEntity
  8
0
  6
DASHED
 62
     3
100
AcDbLine
 10
52.50000014040415
 20
64.150000433331
 30
0.0
 11
50.00000014040416
 21
64.150000433331
 31
0.0
  0
LINE
  5
728
330
BAF
100
AcDbEntity
  8
0
  6
DASHED
 62
     3
100
AcDbLine
 10
52.50000014040415
 20
59.85000043333105
 30
0.0
 11
50.00000014040416
 21
59.85000043333108
 31
0.0
  0
LINE
  5
729
330
BAF
100
AcDbEntity
  8
0
  6
DASHED
 62
     3
100
AcDbLine
 10
57.40000014040417
 20
54.50000043333108
 30
0.0
 11
57.40000014040417
 21
50.00000043333102
 31
0.0
  0
LINE
  5
72A
330
BAF
100
AcDbEntity
  8
0
  6
DASHED
 62
     3
100
AcDbLine
 10
62.60000014040417
 20
54.50000043333108
 30
0.0
 11
62.60000014040414
 21
50.00000043333102
 31
0.0
  0
LINE
  5
72B
330
BAF
100
AcDbEntity
  8
CENTER
  6
CENTER
 62
     1
100
AcDbLine
 10
60.00000014040416
 20
55.50000043333103
 30
0.0
 11
60.00000014040416
 21
48.90000043333103
 31
0.0
  0
LINE
  5
72C
330
BAF
100
AcDbEntity
  8
0
  6
DASHED
 62
     3
100
AcDbLine
 10
77.40000014040418
 20
54.50000043333102
 30
0.0
 11
77.40000014040418
 21
50.00000043333097
 31
0.0
  0
LINE
  5
72D
330
BAF
100
AcDbEntity
  8
0
  6
DASHED
 62
     3
100
AcDbLine
 10
82.6000001404042
 20
54.50000043333108
 30
0.0
 11
82.60000014040416
 21
50.00000043333102
 31
0.0
  0
LINE
  5
72E
330
BAF
100
AcDbEntity
  8
CENTER
  6
CENTER
 62
     1
100
AcDbLine
 10
80.00000014040415
 20
55.50000043333103
 30
0.0
 11
80.00000014040415
 21
48.900000433331
 31
0.0
  0
LINE
  5
741
330
BAF
100
AcDbEntity
  8
0
  6
DASHED
 62
     3
100
AcDbLine
 10
119.1507139186556
 20
54.50000043333102
 30
0.0
 11
144.6507139186556
 21
54.50000043333105
 31
0.0
  0
LINE
  5
742
330
BAF
100
AcDbEntity
  8
0
  6
DASHED
 62
     3
100
AcDbLine
 10
128.5507139186556
 20
54.50000043333105
 30
0.0
 11
128.5507139186556
 21
50.00000043333097
 31
0.0
  0
LINE
  5
743
330
BAF
100
AcDbEntity
  8
0
  6
DASHED
 62
     3
100
AcDbLine
 10
133.7507139186556
 20
54.50000043333105
 30
0.0
 11
133.7507139186556
 21
50.00000043333097
 31
0.0
  0
LINE
  5
744
330
BAF
100
AcDbEntity
  8
CENTER
  6
CENTER
 62
     1
100
AcDbLine
 10
131.1507139186556
 20
55.50000043333096
 30
0.0
 11
131.1507139186556
 21
48.900000433331
 31
0.0
  0
LINE
  5
745
330
BAF
100
AcDbEntity
  8
0
  6
DASHED
 62
     3
100
AcDbLine
 10
136.5507139186556
 20
54.50000043333102
 30
0.0
 11
136.5507139186556
 21
50.00000043333097
 31
0.0
  0
LINE
  5
746
330
BAF
100
AcDbEntity
  8
0
  6
DASHED
 62
     3
100
AcDbLine
 10
141.7507139186557
 20
54.50000043333108
 30
0.0
 11
141.7507139186556
 21
50.00000043333102
 31
0.0
  0
LINE
  5
747
330
BAF
100
AcDbEntity
  8
CENTER
  6
CENTER
 62
     1
100
AcDbLine
 10
139.1507139186557
 20
55.50000043333103
 30
0.0
 11
139.1507139186557
 21
48.900000433331
 31
0.0
  0
LINE
  5
748
330
BAF
100
AcDbEntity
  8
0
  6
DASHED
 62
     3
100
AcDbLine
 10
144.6507139186556
 20
80.000000433331
 30
0.0
 11
144.6507139186556
 21
54.50000043333105
 31
0.0
  0
CIRCLE
  5
74D
330
BAF
100
AcDbEntity
  8
0
  6
Continuous
 62
     3
100
AcDbCircle
 10
137.1507139186556
 20
62.00000043333102
 30
0.0
 40
2.5
1001
ACDBBLOCKREPETAG
1070
     1
1071
        1
1005
0
  0
LINE
  5
74E
330
BAF
100
AcDbEntity
  8
CENTER
  6
CENTER
 62
     1
100
AcDbLine
 10
133.5507139186556
 20
62.00000043333102
 30
0.0
 11
140.7507139186556
 21
62.00000043333102
 31
0.0
  0
LINE
  5
74F
330
BAF
100
AcDbEntity
  8
CENTER
  6
CENTER
 62
     1
100
AcDbLine
 10
137.1507139186556
 20
65.60000043333102
 30
0.0
 11
137.1507139186556
 21
58.40000043333103
 31
0.0
  0
CIRCLE
  5
750
330
BAF
100
AcDbEntity
  8
0
  6
Continuous
 62
     7
100
AcDbCircle
 10
137.1507139186556
 20
62.00000043333102
 30
0.0
 40
2.149999999999999
1001
ACDBBLOCKREPETAG
1070
     1
1071
        0
1005
0
  0
LINE
  5
752
330
BAF
100
AcDbEntity
  8
0
  6
DASHED
 62
     3
100
AcDbLine
 10
144.6507139186556
 20
70.60000043333102
 30
0.0
 11
149.1507139186555
 21
70.60000043333102
 31
0.0
  0
LINE
  5
753
330
BAF
100
AcDbEntity
  8
0
  6
DASHED
 62
     3
100
AcDbLine
 10
144.6507139186556
 20
65.40000043333103
 30
0.0
 11
149.1507139186555
 21
65.40000043333103
 31
0.0
  0
LINE
  5
754
330
BAF
100
AcDbEntity
  8
CENTER
  6
CENTER
 62
     1
100
AcDbLine
 10
143.6507139186556
 20
68.00000043333104
 30
0.0
 11
150.2507139186557
 21
68.00000043333104
 31
0.0
  0
LINE
  5
C79
330
BAF
100
AcDbEntity
  8
0
  6
Continuous
 62
     7
100
AcDbLine
 10
150.1507139186555
 20
54.20000043333104
 30
0.0
 11
150.1507139186555
 21
55.80000043333103
 31
0.0
  0
LINE
  5
C7E
330
BAF
100
AcDbEntity
  8
0
  6
Continuous
 62
     7
100
AcDbLine
 10
150.1507139186555
 20
74.70000043333105
 30
0.0
 11
150.1507139186555
 21
76.30000043333101
 31
0.0
  0
LINE
  5
E3D
330
BAF
100
AcDbEntity
  8
0
  6
Continuous
 62
     7
100
AcDbLine
 10
149.1507139186555
 20
74.50000043333101
 30
0.0
 11
150.1507139186555
 21
74.70000043333105
 31
0.0
  0
LINE
  5
E3E
330
BAF
100
AcDbEntity
  8
0
  6
Continuous
 62
     7
100
AcDbLine
 10
149.1507139186555
 20
76.50000043333101
 30
0.0
 11
150.1507139186555
 21
76.30000043333101
 31
0.0
  0
LINE
  5
E6A
330
BAF
100
AcDbEntity
  8
0
  6
Continuous
 62
     7
100
AcDbLine
 10
149.1507139186555
 20
56.00000043333102
 30
0.0
 11
150.1507139186555
 21
55.80000043333103
 31
0.0
  0
LINE
  5
E6B
330
BAF
100
AcDbEntity
  8
0
  6
Continuous
 62
     7
100
AcDbLine
 10
149.1507139186555
 20
54.00000043333102
 30
0.0
 11
150.1507139186555
 21
54.20000043333104
 31
0.0
  0
LINE
  5
EC6
330
BAF
100
AcDbEntity
  8
0
  6
Continuous
 62
     7
100
AcDbLine
 10
136.1507139186556
 20
49.00000043333104
 30
0.0
 11
138.1507139186557
 21
49.00000043333104
 31
0.0
  0
LINE
  5
EC7
330
BAF
100
AcDbEntity
  8
0
  6
Continuous
 62
     7
100
AcDbLine
 10
140.1507139186557
 20
49.00000043333102
 30
0.0
 11
142.1507139186557
 21
49.00000043333102
 31
0.0
  0
LINE
  5
EC8
330
BAF
100
AcDbEntity
  8
0
  6
Continuous
 62
     7
100
AcDbLine
 10
57.20000014040416
 20
139.0435976692638
 30
0.0
 11
62.80000014040415
 21
139.0435976692638
 31
0.0
  0
LINE
  5
EC9
330
BAF
100
AcDbEntity
  8
0
  6
Continuous
 62
     7
100
AcDbLine
 10
77.20000014040414
 20
139.0435976692638
 30
0.0
 11
82.80000014040416
 21
139.0435976692638
 31
0.0
  0
LINE
  5
ECE
330
BAF
100
AcDbEntity
  8
0
  6
Continuous
 62
     7
100
AcDbLine
 10
138.1507139186557
 20
50.00000043333102
 30
0.0
 11
138.1507139186557
 21
49.00000043333102
 31
0.0
  0
LINE
  5
ECF
330
BAF
100
AcDbEntity
  8
0
  6
Continuous
 62
     7
100
AcDbLine
 10
140.1507139186557
 20
50.00000043333102
 30
0.0
 11
140.1507139186557
 21
49.00000043333102
 31
0.0
  0
LINE
  5
ED0
330
BAF
100
AcDbEntity
  8
0
  6
Continuous
 62
     7
100
AcDbLine
 10
142.1507139186557
 20
50.00000043333102
 30
0.0
 11
142.1507139186557
 21
49.00000043333102
 31
0.0
  0
LINE
  5
ED1
330
BAF
100
AcDbEntity
  8
0
  6
Continuous
 62
     7
100
AcDbLine
 10
136.1507139186556
 20
50.00000043333102
 30
0.0
 11
136.1507139186556
 21
49.00000043333102
 31
0.0
  0
LINE
  5
ED2
330
BAF
100
AcDbEntity
  8
0
  6
Continuous
 62
     7
100
AcDbLine
 10
57.00000014040409
 20
49.000000433331
 30
0.0
 11
59.00000014040415
 21
49.000000433331
 31
0.0
  0
LINE
  5
ED3
330
BAF
100
AcDbEntity
  8
0
  6
Continuous
 62
     7
100
AcDbLine
 10
61.00000014040415
 20
49.000000433331
 30
0.0
 11
63.00000014040415
 21
49.000000433331
 31
0.0
  0
LINE
  5
ED4
330
BAF
100
AcDbEntity
  8
0
  6
Continuous
 62
     7
100
AcDbLine
 10
59.00000014040415
 20
50.00000043333098
 30
0.0
 11
59.00000014040415
 21
49.00000043333098
 31
0.0
  0
LINE
  5
ED5
330
BAF
100
AcDbEntity
  8
0
  6
Continuous
 62
     7
100
AcDbLine
 10
61.00000014040415
 20
50.00000043333098
 30
0.0
 11
61.00000014040415
 21
49.00000043333098
 31
0.0
  0
LINE
  5
ED6
330
BAF
100
AcDbEntity
  8
0
  6
Continuous
 62
     7
100
AcDbLine
 10
63.00000014040415
 20
50.00000043333098
 30
0.0
 11
63.00000014040415
 21
49.00000043333098
 31
0.0
  0
LINE
  5
ED7
330
BAF
100
AcDbEntity
  8
0
  6
Continuous
 62
     7
100
AcDbLine
 10
57.00000014040412
 20
50.00000043333098
 30
0.0
 11
57.00000014040412
 21
49.00000043333098
 31
0.0
  0
LINE
  5
ED8
330
BAF
100
AcDbEntity
  8
0
  6
Continuous
 62
     7
100
AcDbLine
 10
77.00000014040409
 20
49.000000433331
 30
0.0
 11
79.00000014040415
 21
49.000000433331
 31
0.0
  0
LINE
  5
ED9
330
BAF
100
AcDbEntity
  8
0
  6
Continuous
 62
     7
100
AcDbLine
 10
81.00000014040416
 20
49.000000433331
 30
0.0
 11
83.00000014040415
 21
49.000000433331
 31
0.0
  0
LINE
  5
EDA
330
BAF
100
AcDbEntity
  8
0
  6
Continuous
 62
     7
100
AcDbLine
 10
79.00000014040415
 20
50.00000043333098
 30
0.0
 11
79.00000014040415
 21
49.00000043333098
 31
0.0
  0
LINE
  5
EDB
330
BAF
100
AcDbEntity
  8
0
  6
Continuous
 62
     7
100
AcDbLine
 10
81.00000014040416
 20
50.00000043333098
 30
0.0
 11
81.00000014040416
 21
49.00000043333098
 31
0.0
  0
LINE
  5
EDC
330
BAF
100
AcDbEntity
  8
0
  6
Continuous
 62
     7
100
AcDbLine
 10
83.00000014040415
 20
50.00000043333098
 30
0.0
 11
83.00000014040415
 21
49.00000043333098
 31
0.0
  0
LINE
  5
EDD
330
BAF
100
AcDbEntity
  8
0
  6
Continuous
 62
     7
100
AcDbLine
 10
77.00000014040412
 20
50.00000043333098
 30
0.0
 11
77.00000014040412
 21
49.00000043333098
 31
0.0
  0
LINE
  5
F01
330
BAF
100
AcDbEntity
  8
0
  6
Continuous
 62
     7
100
AcDbLine
 10
57.10000014040415
 20
138.0435976692638
 30
0.0
 11
57.20000014040416
 21
139.0435976692638
 31
0.0
  0
LINE
  5
F02
330
BAF
100
AcDbEntity
  8
0
  6
Continuous
 62
     7
100
AcDbLine
 10
62.90000014040415
 20
138.0435976692638
 30
0.0
 11
62.80000014040415
 21
139.0435976692638
 31
0.0
  0
LINE
  5
F03
330
BAF
100
AcDbEntity
  8
0
  6
Continuous
 62
     7
100
AcDbLine
 10
77.10000014040415
 20
138.0435976692638
 30
0.0
 11
77.20000014040414
 21
139.0435976692638
 31
0.0
  0
LINE
  5
F04
330
BAF
100
AcDbEntity
  8
0
  6
Continuous
 62
     7
100
AcDbLine
 10
82.90000014040414
 20
138.0435976692638
 30
0.0
 11
82.80000014040416
 21
139.0435976692638
 31
0.0
  0
ENDSEC
  0
SECTION
  2
OBJECTS
  0
DICTIONARY
  5
B85
330
0
100
AcDbDictionary
281
     1
  3
ACAD_COLOR
350
BA8
  3
ACAD_GROUP
350
B86
  3
ACAD_LAYOUT
350
BA7
  3
ACAD_MATERIAL
350
B89
  3
ACAD_MLINESTYLE
350
BA4
  3
ACAD_PLOTSETTINGS
350
BA6
  3
ACAD_PLOTSTYLENAME
350
B87
  3
ACAD_TABLESTYLE
350
BA9
  3
ACAD_VISUALSTYLE
350
B8D
  3
AcDbVariableDictionary
350
C4A
  3
DWGPROPS
350
F14
  0
DICTIONARY
  5
C74
330
BAF
100
AcDbDictionary
280
     1
281
     1
  3
ACAD_SORTENTS
360
C75
  0
DICTIONARY
  5
BA8
102
{ACAD_REACTORS
330
B85
102
}
330
B85
100
AcDbDictionary
281
     1
  0
DICTIONARY
  5
B86
102
{ACAD_REACTORS
330
B85
102
}
330
B85
100
AcDbDictionary
281
     1
  0
DICTIONARY
  5
BA7
102
{ACAD_REACTORS
330
B85
102
}
330
B85
100
AcDbDictionary
281
     1
  3
Model
350
BB2
  3
レイアウト1
350
BAE
  0
DICTIONARY
  5
B89
102
{ACAD_REACTORS
330
B85
102
}
330
B85
100
AcDbDictionary
281
     1
  3
ByBlock
350
B8B
  3
ByLayer
350
B8A
  3
Global
350
B8C
  0
DICTIONARY
  5
BA4
102
{ACAD_REACTORS
330
B85
102
}
330
B85
100
AcDbDictionary
281
     1
  3
Standard
350
BA5
  0
DICTIONARY
  5
BA6
102
{ACAD_REACTORS
330
B85
102
}
330
B85
100
AcDbDictionary
281
     1
  0
ACDBDICTIONARYWDFLT
  5
B87
102
{ACAD_REACTORS
330
B85
102
}
330
B85
100
AcDbDictionary
281
     1
  3
Normal
350
B88
100
AcDbDictionaryWithDefault
340
B88
  0
DICTIONARY
  5
BA9
102
{ACAD_REACTORS
330
B85
102
}
330
B85
100
AcDbDictionary
281
     1
  3
Standard
350
BAA
  0
DICTIONARY
  5
B8D
102
{ACAD_REACTORS
330
B85
102
}
330
B85
100
AcDbDictionary
281
     1
  3
2dWireframe
350
B93
  3
3D Hidden
350
B95
  3
3dWireframe
350
B94
  3
Basic
350
B92
  3
Brighten
350
B99
  3
ColorChange
350
B9D
  3
Conceptual
350
B96
  3
Dim
350
B98
  3
Facepattern
350
B9C
  3
Flat
350
B8E
  3
FlatWithEdges
350
B8F
  3
Gouraud
350
B90
  3
GouraudWithEdges
350
B91
  3
Linepattern
350
B9B
  3
Realistic
350
B97
  3
Thicken
350
B9A
  0
DICTIONARY
  5
C4A
102
{ACAD_REACTORS
330
B85
102
}
330
B85
100
AcDbDictionary
281
     1
  3
CTABLESTYLE
350
C4B
  3
DIMASSOC
350
D84
  3
INDEXCTL
350
D83
  3
SORTENTS
350
D82
  0
XRECORD
  5
F14
102
{ACAD_REACTORS
330
B85
102
}
330
B85
100
AcDbXrecord
280
     1
  1
DWGPROPS COOKIE
  2

  3

  4

  6

  7

  8
FA_share
  9

300
=
301
=
302
=
303
=
304
=
305
=
306
=
307
=
308
=
309
=
 40
0.064968125
 41
2454133.637695718
 42
2454230.684497859
  1

 90
        0
  0
SORTENTSTABLE
  5
C75
102
{ACAD_REACTORS
330
C74
102
}
330
C74
100
AcDbSortentsTable
330
BAF
331
6F5
  5
70F
331
752
  5
DCE
331
EC8
  5
EC8
331
746
  5
C55
331
6E1
  5
6E1
331
722
  5
747
331
71B
  5
72E
331
6EE
  5
701
331
EDA
  5
F01
331
728
  5
752
331
714
  5
728
331
700
  5
71B
331
ED3
  5
ED7
331
6F9
  5
713
331
726
  5
74F
331
6E5
  5
6E5
331
6F2
  5
705
331
743
  5
C52
331
71F
  5
744
331
6DE
  5
6DE
331
72C
  5
C4D
331
704
  5
71F
331
E3D
  5
6FE
331
6EB
  5
6ED
331
ED7
  5
EDB
331
F04
  5
ECD
331
6FD
  5
717
331
74E
  5
D7E
331
711
  5
725
331
ED0
  5
ED4
331
753
  5
DCF
331
EC9
  5
EC9
331
747
  5
C56
331
6E2
  5
6E2
331
723
  5
748
331
6F6
  5
710
331
71C
  5
741
331
6EF
  5
702
331
6E8
  5
6E8
331
EDB
  5
F02
331
715
  5
729
331
701
  5
71C
331
C7E
  5
6EC
331
729
  5
753
331
ED4
  5
ED8
331
F01
  5
ED1
331
70E
  5
722
331
6E6
  5
6E6
331
727
  5
750
331
6FA
  5
714
331
750
  5
D81
331
6F3
  5
706
331
EC6
  5
EC6
331
744
  5
C53
331
6DF
  5
6DF
331
720
  5
745
331
6EC
  5
6FF
331
E3E
  5
6FD
331
719
  5
72C
331
705
  5
720
331
72D
  5
C4E
331
ED8
  5
EDC
331
712
  5
726
331
74F
  5
D80
331
6FE
  5
719
331
ED1
  5
ED5
331
754
  5
DD0
331
6F7
  5
711
331
748
  5
C57
331
724
  5
74D
331
6E3
  5
6E3
331
6F0
  5
703
331
71D
  5
742
331
E6A
  5
6FC
331
741
  5
C50
331
EDC
  5
F03
331
72A
  5
754
331
702
  5
71D
331
716
  5
72A
331
6E9
  5
6E9
331
ED5
  5
ED9
331
F02
  5
ECF
331
ECE
  5
ED2
331
6FB
  5
715
331
6E7
  5
6E7
331
70F
  5
723
331
EC7
  5
EC7
331
745
  5
C54
331
6E0
  5
6E0
331
721
  5
746
331
6F4
  5
70E
331
72E
  5
C4F
331
706
  5
721
331
71A
  5
72D
331
6ED
  5
700
331
ED9
  5
EDD
331
713
  5
727
331
6FF
  5
71A
331
ED2
  5
ED6
331
6E4
  5
6E4
331
725
  5
74E
331
6F8
  5
712
331
6F1
  5
704
331
742
  5
C51
331
71E
  5
743
331
E6B
  5
6FA
331
6EA
  5
6EA
331
EDD
  5
F04
331
717
  5
72B
331
703
  5
71E
331
72B
  5
C4C
331
ED6
  5
EDA
331
710
  5
724
331
F03
  5
ECB
331
ECF
  5
ED3
331
74D
  5
D7D
331
6FC
  5
716
331
C79
  5
6EB
  0
LAYOUT
  5
BB2
102
{ACAD_XDICTIONARY
360
F19
102
}
102
{ACAD_REACTORS
330
BA7
102
}
330
BA7
100
AcDbPlotSettings
  1

  2
Canon LASER SHOT LBP-1820
  4

  6

 40
0.0
 41
0.0
 42
0.0
 43
0.0
 44
0.0
 45
0.0
 46
0.0
 47
0.0
 48
0.0
 49
0.0
140
0.0
141
0.0
142
1.0
143
1.0
 70
  1712
 72
     0
 73
     0
 74
     0
  7

 75
     0
147
1.0
148
0.0
149
0.0
100
AcDbLayout
  1
Model
 70
     1
 71
     0
 10
0.0
 20
0.0
 11
12.0
 21
9.0
 12
0.0
 22
0.0
 32
0.0
 14
0.0
 24
0.0
 34
0.0
 15
0.0
 25
0.0
 35
0.0
146
0.0
 13
0.0
 23
0.0
 33
0.0
 16
1.0
 26
0.0
 36
0.0
 17
0.0
 27
1.0
 37
0.0
 76
     0
330
BAF
331
BB3
  0
LAYOUT
  5
BAE
102
{ACAD_XDICTIONARY
360
F17
102
}
102
{ACAD_REACTORS
330
BA7
102
}
330
BA7
100
AcDbPlotSettings
  1

  2
Canon LASER SHOT LBP-1820
  4

  6

 40
0.0
 41
0.0
 42
0.0
 43
0.0
 44
0.0
 45
0.0
 46
0.0
 47
0.0
 48
0.0
 49
0.0
140
0.0
141
0.0
142
1.0
143
1.0
 70
   688
 72
     0
 73
     0
 74
     5
  7

 75
    16
147
1.0
148
0.0
149
0.0
100
AcDbLayout
  1
レイアウト1
 70
     1
 71
     1
 10
0.0
 20
0.0
 11
12.0
 21
9.0
 12
0.0
 22
0.0
 32
0.0
 14
1.000000000000000E+20
 24
1.000000000000000E+20
 34
1.000000000000000E+20
 15
-1.000000000000000E+20
 25
-1.000000000000000E+20
 35
-1.000000000000000E+20
146
0.0
 13
0.0
 23
0.0
 33
0.0
 16
1.0
 26
0.0
 36
0.0
 17
0.0
 27
1.0
 37
0.0
 76
     0
330
BAB
  0
MATERIAL
  5
B8B
102
{ACAD_XDICTIONARY
360
E9A
102
}
102
{ACAD_REACTORS
330
B89
102
}
330
B89
100
AcDbMaterial
  1
ByBlock
  0
MATERIAL
  5
B8A
102
{ACAD_XDICTIONARY
360
E98
102
}
102
{ACAD_REACTORS
330
B89
102
}
330
B89
100
AcDbMaterial
  1
ByLayer
  0
MATERIAL
  5
B8C
102
{ACAD_XDICTIONARY
360
E9C
102
}
102
{ACAD_REACTORS
330
B89
102
}
330
B89
100
AcDbMaterial
  1
Global
  0
MLINESTYLE
  5
BA5
102
{ACAD_REACTORS
330
BA4
102
}
330
BA4
100
AcDbMlineStyle
  2
STANDARD
 70
     0
  3

 62
   256
 51
90.0
 52
90.0
 71
     2
 49
0.5
 62
   256
  6
BYLAYER
 49
-0.5
 62
   256
  6
BYLAYER
  0
ACDBPLACEHOLDER
  5
B88
102
{ACAD_REACTORS
330
B87
102
}
330
B87
  0
TABLESTYLE
  5
BAA
102
{ACAD_XDICTIONARY
360
F15
102
}
102
{ACAD_REACTORS
330
BA9
102
}
330
BA9
100
AcDbTableStyle
  3
Standard
 70
     0
 71
     0
 40
0.06
 41
0.06
280
     0
281
     0
  7
STANDARD
140
0.18
170
     2
 62
     0
 63
     7
283
     0
274
    -2
284
     1
 64
     0
275
    -2
285
     1
 65
     0
276
    -2
286
     1
 66
     0
277
    -2
287
     1
 67
     0
278
    -2
288
     1
 68
     0
279
    -2
289
     1
 69
     0
  7
STANDARD
140
0.25
170
     5
 62
     0
 63
     7
283
     0
274
    -2
284
     1
 64
     0
275
    -2
285
     1
 65
     0
276
    -2
286
     1
 66
     0
277
    -2
287
     1
 67
     0
278
    -2
288
     1
 68
     0
279
    -2
289
     1
 69
     0
  7
STANDARD
140
0.18
170
     5
 62
     0
 63
     7
283
     0
274
    -2
284
     1
 64
     0
275
    -2
285
     1
 65
     0
276
    -2
286
     1
 66
     0
277
    -2
287
     1
 67
     0
278
    -2
288
     1
 68
     0
279
    -2
289
     1
 69
     0
  0
VISUALSTYLE
  5
B93
102
{ACAD_REACTORS
330
B8D
102
}
330
B8D
100
AcDbVisualStyle
  2
2dWireframe
 70
     4
 71
     0
 72
     2
 73
     0
 90
        0
 40
-0.6
 41
-30.0
 62
     5
 63
     7
 74
     1
 91
        4
 64
     7
 65
   257
 75
     1
175
     1
 42
1.0
 92
        0
 66
   257
 43
1.0
 76
     1
 77
     6
 78
     2
 67
     7
 79
     5
170
     0
171
     0
290
     0
174
     0
 93
        1
 44
0.0
173
     0
291
     0
 45
0.0
1001
ACAD
1000
AcDbSavedByObjectVersion
1070
     0
1000
AcDbSavedByObjectVersion
1070
     0
  0
VISUALSTYLE
  5
B95
102
{ACAD_REACTORS
330
B8D
102
}
330
B8D
100
AcDbVisualStyle
  2
3D Hidden
 70
     6
 71
     1
 72
     2
 73
     2
 90
        0
 40
-0.6
 41
-30.0
 62
     5
 63
     7
 74
     2
 91
        2
 64
     7
 65
   257
 75
     2
175
     1
 42
40.0
 92
        0
 66
   257
 43
1.0
 76
     1
 77
     6
 78
     2
 67
     7
 79
     3
170
     0
171
     0
290
     0
174
     0
 93
        1
 44
0.0
173
     0
291
     0
 45
0.0
1001
ACAD
1000
AcDbSavedByObjectVersion
1070
     0
1000
AcDbSavedByObjectVersion
1070
     0
  0
VISUALSTYLE
  5
B94
102
{ACAD_REACTORS
330
B8D
102
}
330
B8D
100
AcDbVisualStyle
  2
3dWireframe
 70
     5
 71
     0
 72
     2
 73
     0
 90
        0
 40
-0.6
 41
-30.0
 62
     5
 63
     7
 74
     1
 91
        4
 64
     7
 65
   257
 75
     1
175
     1
 42
1.0
 92
        0
 66
   257
 43
1.0
 76
     1
 77
     6
 78
     2
 67
     7
 79
     5
170
     0
171
     0
290
     0
174
     0
 93
        1
 44
0.0
173
     0
291
     0
 45
0.0
1001
ACAD
1000
AcDbSavedByObjectVersion
1070
     0
1000
AcDbSavedByObjectVersion
1070
     0
  0
VISUALSTYLE
  5
B92
102
{ACAD_REACTORS
330
B8D
102
}
330
B8D
100
AcDbVisualStyle
  2
Basic
 70
     7
 71
     1
 72
     0
 73
     1
 90
        0
 40
-0.6
 41
-30.0
 62
     5
 63
     7
 74
     0
 91
        4
 64
     7
 65
   257
 75
     1
175
     1
 42
1.0
 92
        8
 66
     7
 43
1.0
 76
     1
 77
     6
 78
     2
 67
     7
 79
     5
170
     0
171
     0
290
     0
174
     0
 93
        1
 44
0.0
173
     0
291
     1
 45
0.0
1001
ACAD
1000
AcDbSavedByObjectVersion
1070
     0
1000
AcDbSavedByObjectVersion
1070
     0
  0
VISUALSTYLE
  5
B99
102
{ACAD_REACTORS
330
B8D
102
}
330
B8D
100
AcDbVisualStyle
  2
Brighten
 70
    12
 71
     2
 72
     2
 73
     0
 90
        0
 40
-0.6
 41
-30.0
 62
     5
 63
     7
 74
     1
 91
        4
 64
     7
 65
   257
 75
     1
175
     1
 42
1.0
 92
        8
 66
     7
 43
1.0
 76
     1
 77
     6
 78
     2
 67
     7
 79
     5
170
     0
171
     0
290
     0
174
     0
 93
        1
 44
50.0
173
     0
291
     1
 45
0.0
1001
ACAD
1000
AcDbSavedByObjectVersion
1070
     0
1000
AcDbSavedByObjectVersion
1070
     0
  0
VISUALSTYLE
  5
B9D
102
{ACAD_REACTORS
330
B8D
102
}
330
B8D
100
AcDbVisualStyle
  2
ColorChange
 70
    16
 71
     2
 72
     2
 73
     3
 90
        0
 40
-0.6
 41
-30.0
 62
     5
 63
     8
 74
     1
 91
        4
 64
     7
 65
   257
 75
     1
175
     1
 42
1.0
 92
        8
 66
     8
 43
1.0
 76
     1
 77
     6
 78
     2
 67
     7
 79
     5
170
     0
171
     0
290
     0
174
     0
 93
        1
 44
0.0
173
     0
291
     1
 45
0.0
1001
ACAD
1000
AcDbSavedByObjectVersion
1070
     0
1000
AcDbSavedByObjectVersion
1070
     0
  0
VISUALSTYLE
  5
B96
102
{ACAD_REACTORS
330
B8D
102
}
330
B8D
100
AcDbVisualStyle
  2
Conceptual
 70
     9
 71
     3
 72
     2
 73
     0
 90
        0
 40
-0.6
 41
-30.0
 62
     5
 63
     7
 74
     2
 91
        2
 64
     7
 65
   257
 75
     1
175
     1
 42
40.0
 92
        8
 66
     7
 43
1.0
 76
     1
 77
     6
 78
     2
 67
     7
 79
     3
170
     0
171
     0
290
     0
174
     0
 93
        1
 44
0.0
173
     0
291
     0
 45
0.0
1001
ACAD
1000
AcDbSavedByObjectVersion
1070
     0
1000
AcDbSavedByObjectVersion
1070
     0
  0
VISUALSTYLE
  5
B98
102
{ACAD_REACTORS
330
B8D
102
}
330
B8D
100
AcDbVisualStyle
  2
Dim
 70
    11
 71
     2
 72
     2
 73
     0
 90
        0
 40
-0.6
 41
-30.0
 62
     5
 63
     7
 74
     1
 91
        4
 64
     7
 65
   257
 75
     1
175
     1
 42
1.0
 92
        8
 66
     7
 43
1.0
 76
     1
 77
     6
 78
     2
 67
     7
 79
     5
170
     0
171
     0
290
     0
174
     0
 93
        1
 44
-50.0
173
     0
291
     1
 45
0.0
1001
ACAD
1000
AcDbSavedByObjectVersion
1070
     0
1000
AcDbSavedByObjectVersion
1070
     0
  0
VISUALSTYLE
  5
B9C
102
{ACAD_REACTORS
330
B8D
102
}
330
B8D
100
AcDbVisualStyle
  2
Facepattern
 70
    15
 71
     2
 72
     2
 73
     0
 90
        0
 40
-0.6
 41
-30.0
 62
     5
 63
     7
 74
     1
 91
        4
 64
     7
 65
   257
 75
     1
175
     1
 42
1.0
 92
        8
 66
     7
 43
1.0
 76
     1
 77
     6
 78
     2
 67
     7
 79
     5
170
     0
171
     0
290
     0
174
     0
 93
        1
 44
0.0
173
     0
291
     1
 45
0.0
1001
ACAD
1000
AcDbSavedByObjectVersion
1070
     0
1000
AcDbSavedByObjectVersion
1070
     0
  0
VISUALSTYLE
  5
B8E
102
{ACAD_REACTORS
330
B8D
102
}
330
B8D
100
AcDbVisualStyle
  2
Flat
 70
     0
 71
     2
 72
     1
 73
     1
 90
        2
 40
-0.6
 41
30.0
 62
     5
 63
     7
 74
     0
 91
        4
 64
     7
 65
   257
 75
     1
175
     1
 42
1.0
 92
        8
 66
     7
 43
1.0
 76
     1
 77
     6
 78
     2
 67
     7
 79
     5
170
     0
171
     0
290
     0
174
     0
 93
       13
 44
0.0
173
     0
291
     1
 45
0.0
1001
ACAD
1000
AcDbSavedByObjectVersion
1070
     0
1000
AcDbSavedByObjectVersion
1070
     0
  0
VISUALSTYLE
  5
B8F
102
{ACAD_REACTORS
330
B8D
102
}
330
B8D
100
AcDbVisualStyle
  2
FlatWithEdges
 70
     1
 71
     2
 72
     1
 73
     1
 90
        2
 40
-0.6
 41
30.0
 62
     5
 63
     7
 74
     1
 91
        4
 64
     7
 65
   257
 75
     1
175
     1
 42
1.0
 92
        0
 66
   257
 43
1.0
 76
     1
 77
     6
 78
     2
 67
     7
 79
     5
170
     0
171
     0
290
     0
174
     0
 93
       13
 44
0.0
173
     0
291
     1
 45
0.0
1001
ACAD
1000
AcDbSavedByObjectVersion
1070
     0
1000
AcDbSavedByObjectVersion
1070
     0
  0
VISUALSTYLE
  5
B90
102
{ACAD_REACTORS
330
B8D
102
}
330
B8D
100
AcDbVisualStyle
  2
Gouraud
 70
     2
 71
     2
 72
     2
 73
     1
 90
        2
 40
-0.6
 41
30.0
 62
     5
 63
     7
 74
     0
 91
        4
 64
     7
 65
   257
 75
     1
175
     1
 42
1.0
 92
        0
 66
     7
 43
1.0
 76
     1
 77
     6
 78
     2
 67
     7
 79
     5
170
     0
171
     0
290
     0
174
     0
 93
       13
 44
0.0
173
     0
291
     1
 45
0.0
1001
ACAD
1000
AcDbSavedByObjectVersion
1070
     0
1000
AcDbSavedByObjectVersion
1070
     0
  0
VISUALSTYLE
  5
B91
102
{ACAD_REACTORS
330
B8D
102
}
330
B8D
100
AcDbVisualStyle
  2
GouraudWithEdges
 70
     3
 71
     2
 72
     2
 73
     1
 90
        2
 40
-0.6
 41
30.0
 62
     5
 63
     7
 74
     1
 91
        4
 64
     7
 65
   257
 75
     1
175
     1
 42
1.0
 92
        0
 66
   257
 43
1.0
 76
     1
 77
     6
 78
     2
 67
     7
 79
     5
170
     0
171
     0
290
     0
174
     0
 93
       13
 44
0.0
173
     0
291
     1
 45
0.0
1001
ACAD
1000
AcDbSavedByObjectVersion
1070
     0
1000
AcDbSavedByObjectVersion
1070
     0
  0
VISUALSTYLE
  5
B9B
102
{ACAD_REACTORS
330
B8D
102
}
330
B8D
100
AcDbVisualStyle
  2
Linepattern
 70
    14
 71
     2
 72
     2
 73
     0
 90
        0
 40
-0.6
 41
-30.0
 62
     5
 63
     7
 74
     1
 91
        4
 64
     7
 65
   257
 75
     7
175
     7
 42
1.0
 92
        8
 66
     7
 43
1.0
 76
     1
 77
     6
 78
     2
 67
     7
 79
     5
170
     0
171
     0
290
     0
174
     0
 93
        1
 44
0.0
173
     0
291
     1
 45
0.0
1001
ACAD
1000
AcDbSavedByObjectVersion
1070
     0
1000
AcDbSavedByObjectVersion
1070
     0
  0
VISUALSTYLE
  5
B97
102
{ACAD_REACTORS
330
B8D
102
}
330
B8D
100
AcDbVisualStyle
  2
Realistic
 70
     8
 71
     2
 72
     2
 73
     0
 90
        0
 40
-0.6
 41
-30.0
 62
     5
 63
     7
 74
     1
 91
        0
 64
     7
 65
   257
 75
     1
175
     1
 42
1.0
 92
        8
 66
     8
 43
1.0
 76
     1
 77
     6
 78
     2
 67
     7
 79
     5
170
     0
171
     0
290
     0
174
     0
 93
       13
 44
0.0
173
     0
291
     0
 45
0.0
1001
ACAD
1000
AcDbSavedByObjectVersion
1070
     0
1000
AcDbSavedByObjectVersion
1070
     0
  0
VISUALSTYLE
  5
B9A
102
{ACAD_REACTORS
330
B8D
102
}
330
B8D
100
AcDbVisualStyle
  2
Thicken
 70
    13
 71
     2
 72
     2
 73
     0
 90
        0
 40
-0.6
 41
-30.0
 62
     5
 63
     7
 74
     1
 91
        4
 64
     7
 65
   257
 75
     1
175
     1
 42
1.0
 92
       12
 66
     7
 43
1.0
 76
     1
 77
     6
 78
     2
 67
     7
 79
     5
170
     0
171
     0
290
     0
174
     0
 93
        1
 44
0.0
173
     0
291
     1
 45
0.0
1001
ACAD
1000
AcDbSavedByObjectVersion
1070
     0
1000
AcDbSavedByObjectVersion
1070
     0
  0
DICTIONARYVAR
  5
C4B
102
{ACAD_REACTORS
330
C4A
102
}
330
C4A
100
DictionaryVariables
280
     0
  1
STANDARD
  0
DICTIONARYVAR
  5
D84
102
{ACAD_REACTORS
330
C4A
102
}
330
C4A
100
DictionaryVariables
280
     0
  1
1
  0
DICTIONARYVAR
  5
D83
102
{ACAD_REACTORS
330
C4A
102
}
330
C4A
100
DictionaryVariables
280
     0
  1
0
  0
DICTIONARYVAR
  5
D82
102
{ACAD_REACTORS
330
C4A
102
}
330
C4A
100
DictionaryVariables
280
     0
  1
127
  0
DICTIONARY
  5
F19
330
BB2
100
AcDbDictionary
280
     1
281
     1
  3
ACAD_XREC_ROUNDTRIP
360
F1A
  0
DICTIONARY
  5
F17
330
BAE
100
AcDbDictionary
280
     1
281
     1
  3
ACAD_XREC_ROUNDTRIP
360
F18
  0
DICTIONARY
  5
E9A
330
B8B
100
AcDbDictionary
280
     1
281
     1
  3
ACAD_XREC_ROUNDTRIP
360
E9B
  0
DICTIONARY
  5
E98
330
B8A
100
AcDbDictionary
280
     1
281
     1
  3
ACAD_XREC_ROUNDTRIP
360
E99
  0
DICTIONARY
  5
E9C
330
B8C
100
AcDbDictionary
280
     1
281
     1
  3
ACAD_XREC_ROUNDTRIP
360
E9D
  0
DICTIONARY
  5
F15
330
BAA
100
AcDbDictionary
280
     1
281
     1
  3
ACAD_XREC_ROUNDTRIP
360
F16
  0
XRECORD
  5
F1A
102
{ACAD_REACTORS
330
F19
102
}
330
F19
100
AcDbXrecord
280
     1
102
SHADEPLOT
 70
     0
102
SHADEPLOTRESLEVEL
 70
     2
102
SHADEPLOTCUSTOMDPI
 70
   300
  0
XRECORD
  5
F18
102
{ACAD_REACTORS
330
F17
102
}
330
F17
100
AcDbXrecord
280
     1
102
SHADEPLOT
 70
     0
102
SHADEPLOTRESLEVEL
 70
     2
102
SHADEPLOTCUSTOMDPI
 70
   300
  0
XRECORD
  5
E9B
102
{ACAD_REACTORS
330
E9A
102
}
330
E9A
100
AcDbXrecord
280
     1
102
MATERIAL
148
0.0
149
0.0
149
0.0
 93
        0
 94
       63
282
     0
 72
     1
 77
     1
171
     1
175
     1
179
     1
273
     0
  0
XRECORD
  5
E99
102
{ACAD_REACTORS
330
E98
102
}
330
E98
100
AcDbXrecord
280
     1
102
MATERIAL
148
0.0
149
0.0
149
0.0
 93
        0
 94
       63
282
     0
 72
     1
 77
     1
171
     1
175
     1
179
     1
273
     0
  0
XRECORD
  5
E9D
102
{ACAD_REACTORS
330
E9C
102
}
330
E9C
100
AcDbXrecord
280
     1
102
MATERIAL
148
0.0
149
0.0
149
0.0
 93
        0
 94
       63
282
     0
 72
     1
 77
     1
171
     1
175
     1
179
     1
273
     0
  0
XRECORD
  5
F16
102
{ACAD_REACTORS
330
F15
102
}
330
F15
100
AcDbXrecord
280
     1
102
ACAD_ROUNDTRIP_PRE2007_TABLESTYLE
 90
      512
 91
        0
  1

 92
      512
 93
        0
  2

 94
      512
 95
        0
  3

  0
ENDSEC
  0
EOF
