  0
SECTION
  2
HEADER
  9
$ACADVER
  1
AC1009
  9
$INSBASE
 10
0.0
 20
0.0
 30
0.0
  9
$EXTMIN
 10
-25.79365247422766
 20
-30.546641278483811
 30
0.0
  9
$EXTMAX
 10
99.397695971858809
 20
12.0
 30
0.0
  9
$LIMMIN
 10
0.0
 20
0.0
  9
$LIMMAX
 10
420.0
 20
297.0
  9
$ORTHOMODE
 70
     0
  9
$REGENMODE
 70
     1
  9
$FILLMODE
 70
     1
  9
$QTEXTMODE
 70
     0
  9
$MIRRTEXT
 70
     0
  9
$DRAGMODE
 70
     2
  9
$LTSCALE
 40
1.0
  9
$OSMODE
 70
    61
  9
$ATTMODE
 70
     1
  9
$TEXTSIZE
 40
3.0
  9
$TRACEWID
 40
1.0
  9
$TEXTSTYLE
  7
STANDARD
  9
$CLAYER
  8
0
  9
$CELTYPE
  6
CONTINUOUS
  9
$CECOLOR
 62
     7
  9
$DIMSCALE
 40
1.0
  9
$DIMASZ
 40
2.5
  9
$DIMEXO
 40
0.625
  9
$DIMDLI
 40
3.75
  9
$DIMRND
 40
0.0
  9
$DIMDLE
 40
0.0
  9
$DIMEXE
 40
1.25
  9
$DIMTP
 40
0.0
  9
$DIMTM
 40
0.0
  9
$DIMTXT
 40
2.5
  9
$DIMCEN
 40
2.5
  9
$DIMTSZ
 40
0.0
  9
$DIMTOL
 70
     0
  9
$DIMLIM
 70
     0
  9
$DIMTIH
 70
     0
  9
$DIMTOH
 70
     0
  9
$DIMSE1
 70
     0
  9
$DIMSE2
 70
     0
  9
$DIMTAD
 70
     1
  9
$DIMZIN
 70
     8
  9
$DIMBLK
  1
OPEN30
  9
$DIMASO
 70
     1
  9
$DIMSHO
 70
     1
  9
$DIMPOST
  1

  9
$DIMAPOST
  1

  9
$DIMALT
 70
     0
  9
$DIMALTD
 70
     3
  9
$DIMALTF
 40
0.03937007874016
  9
$DIMLFAC
 40
1.0
  9
$DIMTOFL
 70
     1
  9
$DIMTVP
 40
0.0
  9
$DIMTIX
 70
     0
  9
$DIMSOXD
 70
     0
  9
$DIMSAH
 70
     0
  9
$DIMBLK1
  1

  9
$DIMBLK2
  1

  9
$DIMSTYLE
  2
MISUMI
  9
$DIMCLRD
 70
   137
  9
$DIMCLRE
 70
   137
  9
$DIMCLRT
 70
   137
  9
$DIMTFAC
 40
1.0
  9
$DIMGAP
 40
0.625
  9
$LUNITS
 70
     2
  9
$LUPREC
 70
     2
  9
$SKETCHINC
 40
1.0
  9
$FILLETRAD
 40
0.3
  9
$AUNITS
 70
     0
  9
$AUPREC
 70
     0
  9
$MENU
  1
.
  9
$ELEVATION
 40
0.0
  9
$PELEVATION
 40
0.0
  9
$THICKNESS
 40
0.0
  9
$LIMCHECK
 70
     0
  9
$BLIPMODE
 70
     0
  9
$CHAMFERA
 40
0.5
  9
$CHAMFERB
 40
0.5
  9
$SKPOLY
 70
     0
  9
$TDCREATE
 40
2455135.5720697111
  9
$TDUPDATE
 40
2455968.6121649891
  9
$TDINDWG
 40
0.1815341088
  9
$TDUSRTIMER
 40
0.1815339236
  9
$USRTIMER
 70
     1
  9
$ANGBASE
 50
0.0
  9
$ANGDIR
 70
     0
  9
$PDMODE
 70
    35
  9
$PDSIZE
 40
0.0
  9
$PLINEWID
 40
0.0
  9
$COORDS
 70
     1
  9
$SPLFRAME
 70
     0
  9
$SPLINETYPE
 70
     6
  9
$SPLINESEGS
 70
     8
  9
$ATTDIA
 70
     0
  9
$ATTREQ
 70
     1
  9
$HANDLING
 70
     1
  9
$HANDSEED
  5
7C0A
  9
$SURFTAB1
 70
     6
  9
$SURFTAB2
 70
     6
  9
$SURFTYPE
 70
     6
  9
$SURFU
 70
     6
  9
$SURFV
 70
     6
  9
$UCSNAME
  2

  9
$UCSORG
 10
0.0
 20
0.0
 30
0.0
  9
$UCSXDIR
 10
1.0
 20
0.0
 30
0.0
  9
$UCSYDIR
 10
0.0
 20
1.0
 30
0.0
  9
$PUCSNAME
  2

  9
$PUCSORG
 10
0.0
 20
0.0
 30
0.0
  9
$PUCSXDIR
 10
1.0
 20
0.0
 30
0.0
  9
$PUCSYDIR
 10
0.0
 20
1.0
 30
0.0
  9
$USERI1
 70
     0
  9
$USERI2
 70
     0
  9
$USERI3
 70
     0
  9
$USERI4
 70
     0
  9
$USERI5
 70
     0
  9
$USERR1
 40
0.0
  9
$USERR2
 40
0.0
  9
$USERR3
 40
0.0
  9
$USERR4
 40
0.0
  9
$USERR5
 40
0.0
  9
$WORLDVIEW
 70
     1
  9
$SHADEDGE
 70
     3
  9
$SHADEDIF
 70
    70
  9
$TILEMODE
 70
     1
  9
$MAXACTVP
 70
    64
  9
$PLIMCHECK
 70
     0
  9
$PEXTMIN
 10
25.699999999999989
 20
19.5
 30
0.0
  9
$PEXTMAX
 10
231.30000000000001
 20
175.5
 30
0.0
  9
$PLIMMIN
 10
-20.0
 20
-7.5
  9
$PLIMMAX
 10
277.0
 20
202.5
  9
$UNITMODE
 70
     0
  9
$VISRETAIN
 70
     1
  9
$PLINEGEN
 70
     0
  9
$PSLTSCALE
 70
     1
  0
ENDSEC
  0
SECTION
  2
TABLES
  0
TABLE
  2
VPORT
 70
     1
  0
VPORT
  2
*ACTIVE
 70
     0
 10
0.0
 20
0.0
 11
1.0
 21
1.0
 12
37.730195996894082
 22
-12.74240050951753
 13
0.0
 23
0.0
 14
10.0
 24
10.0
 15
10.0
 25
10.0
 16
0.0
 26
0.0
 36
1.0
 17
0.0
 27
0.0
 37
0.0
 40
115.3225669801319
 41
1.253826530612244
 42
50.0
 43
0.0
 44
0.0
 50
0.0
 51
0.0
 71
     0
 72
  1000
 73
     1
 74
     3
 75
     0
 76
     0
 77
     0
 78
     0
  0
ENDTAB
  0
TABLE
  2
LTYPE
 70
     4
  0
LTYPE
  2
CONTINUOUS
 70
     0
  3
Solid line
 72
    65
 73
     0
 40
0.0
  0
LTYPE
  2
CENTER
 70
     0
  3
Center ____ _ ____ _ ____ _ ____ _ ____ _ ____
 72
    65
 73
     4
 40
50.799999999999997
 49
31.75
 49
-6.3499999999999988
 49
6.3499999999999988
 49
-6.3499999999999988
  0
LTYPE
  2
DASHED
 70
     0
  3
Dashed __ __ __ __ __ __ __ __ __ __ __ __ __ _
 72
    65
 73
     2
 40
19.050000000000001
 49
12.699999999999999
 49
-6.3499999999999988
  0
LTYPE
  2
PHANTOM
 70
     0
  3
Phantom ______  __  __  ______  __  __  ______
 72
    65
 73
     6
 40
63.5
 49
31.75
 49
-6.3499999999999988
 49
6.3499999999999988
 49
-6.3499999999999988
 49
6.3499999999999988
 49
-6.3499999999999988
  0
ENDTAB
  0
TABLE
  2
LAYER
 70
     3
  0
LAYER
  2
0
 70
     0
 62
     7
  6
CONTINUOUS
  0
LAYER
  2
CENTER
 70
     0
 62
     1
  6
CENTER
  0
LAYER
  2
DEFPOINTS
 70
     0
 62
     7
  6
CONTINUOUS
  0
ENDTAB
  0
TABLE
  2
STYLE
 70
     1
  0
STYLE
  2
STANDARD
 70
     0
 40
3.0
 41
1.0
 50
0.0
 71
     0
 42
3.0
  3
txt.shx
  4
bigfont.shx
  0
ENDTAB
  0
TABLE
  2
VIEW
 70
     0
  0
ENDTAB
  0
TABLE
  2
UCS
 70
     0
  0
ENDTAB
  0
TABLE
  2
APPID
 70
    10
  0
APPID
  2
ACAD
 70
     0
  0
APPID
  2
ACAD_MLEADERVER
 70
     0
  0
APPID
  2
ACAD_EXEMPT_FROM_CAD_STANDARDS
 70
     0
  0
APPID
  2
ACDBBLOCKREPETAG
 70
     0
  0
APPID
  2
ACAD_DSTYLE_DIMJOGGED_JOGA
 70
     0
  0
APPID
  2
ACAECLAYERSTANDARD
 70
     0
  0
APPID
  2
GENIUS_GENODEF_13
 70
     0
  0
APPID
  2
GENIUS_GENOBJ-N-FIL_13
 70
     0
  0
APPID
  2
ACAD_PSEXT
 70
     0
  0
APPID
  2
ACAD_DSTYLE_DIMRADIAL_EXTENSION
 70
     0
  0
ENDTAB
  0
TABLE
  2
DIMSTYLE
 70
     1
  0
DIMSTYLE
  2
MISUMI
 70
     0
  3

  4

  5
OPEN30
  6

  7

 40
1.0
 41
2.5
 42
0.625
 43
3.75
 44
1.25
 45
0.0
 46
0.0
 47
0.0
 48
0.0
140
2.5
141
2.5
142
0.0
143
0.03937007874016
144
1.0
145
0.0
146
1.0
147
0.625
 71
     0
 72
     0
 73
     0
 74
     0
 75
     0
 76
     0
 77
     1
 78
     8
170
     0
171
     3
172
     1
173
     0
174
     0
175
     0
176
   137
177
   137
178
   137
  0
ENDTAB
  0
ENDSEC
  0
SECTION
  2
BLOCKS
  0
BLOCK
  8
0
  2
$MODEL_SPACE
 70
     0
 10
0.0
 20
0.0
 30
0.0
  3
$MODEL_SPACE
  1

  0
ENDBLK
  5
21
  8
0
  0
BLOCK
 67
     1
  8
0
  2
$PAPER_SPACE
 70
     0
 10
0.0
 20
0.0
 30
0.0
  3
$PAPER_SPACE
  1

  0
ENDBLK
  5
58
 67
     1
  8
0
  0
BLOCK
  8
0
 62
     7
  2
_OPEN30
 70
     0
 10
0.0
 20
0.0
 30
0.0
  3
_OPEN30
  1

  0
LINE
  5
D7
  8
0
  6
BYBLOCK
 62
     0
 10
-1.0
 20
0.26794919
 30
0.0
 11
0.0
 21
0.0
 31
0.0
  0
LINE
  5
D8
  8
0
  6
BYBLOCK
 62
     0
 10
0.0
 20
0.0
 30
0.0
 11
-1.0
 21
-0.26794919
 31
0.0
  0
LINE
  5
D9
  8
0
  6
BYBLOCK
 62
     0
 10
0.0
 20
0.0
 30
0.0
 11
-1.0
 21
0.0
 31
0.0
  0
ENDBLK
  5
DB
  8
0
 62
     7
  0
BLOCK
  8
0
 62
     7
  2
*U2
 70
     1
 10
0.0
 20
0.0
 30
0.0
  3
*U2
  1

  0
TEXT
  5
7C03
  8
0
  6
CONTINUOUS
 62
     7
 10
-25.79365247422766
 20
-26.23156417669631
 30
0.0
 40
3.0
  1
NFSF5-2040-L50
  0
ENDBLK
  5
7C05
  8
0
 62
     7
  0
BLOCK
  8
0
 62
     7
  2
*U3
 70
     1
 10
0.0
 20
0.0
 30
0.0
  3
*U3
  1

  0
TEXT
  5
7C07
  8
0
  6
CONTINUOUS
 62
     7
 10
-25.79365247422766
 20
-30.546641278483811
 30
0.0
 40
3.0
  1
NFSF5-2040
  0
ENDBLK
  5
7C09
  8
0
 62
     7
  0
ENDSEC
  0
SECTION
  2
ENTITIES
  0
LINE
  5
78D8
  8
CENTER
  6
CENTER
 62
     1
 10
-10.0
 20
6.0
 30
0.0
 11
-10.0
 21
-6.0
 31
0.0
  0
LINE
  5
78D9
  8
CENTER
  6
CENTER
 62
     1
 10
22.0
 20
0.0
 30
0.0
 11
-22.0
 21
0.0
 31
0.0
  0
LINE
  5
78DA
  8
0
  6
CONTINUOUS
 62
     7
 10
19.0
 20
10.0
 30
0.0
 11
-19.0
 21
10.0
 31
0.0
  0
LINE
  5
78DB
  8
0
  6
CONTINUOUS
 62
     7
 10
6.6999999999999931
 20
-10.0
 30
0.0
 11
-6.7000000000000037
 21
-10.0
 31
0.0
  0
LINE
  5
78DC
  8
0
  6
CONTINUOUS
 62
     7
 10
20.0
 20
9.0
 30
0.0
 11
20.0
 21
3.2999999999999972
 31
0.0
  0
LINE
  5
78DD
  8
0
  6
CONTINUOUS
 62
     7
 10
-20.0
 20
9.0
 30
0.0
 11
-20.0
 21
3.2999999999999998
 31
0.0
  0
LINE
  5
78E1
  8
0
  6
CONTINUOUS
 62
     7
 10
-14.0
 20
2.9393398282201799
 30
0.0
 11
-14.0
 21
0.6535898384862242
 31
0.0
  0
LINE
  5
78E2
  8
0
  6
CONTINUOUS
 62
     7
 10
-8.5
 20
4.0
 30
0.0
 11
-12.939339828220181
 21
4.0
 31
0.0
  0
LINE
  5
78E4
  8
0
  6
CONTINUOUS
 62
     7
 10
-8.5
 20
8.0
 30
0.0
 11
-16.0
 21
8.0
 31
0.0
  0
LINE
  5
78E7
  8
0
  6
CONTINUOUS
 62
     7
 10
-18.0
 20
6.0
 30
0.0
 11
-18.0
 21
3.2999999999999989
 31
0.0
  0
LINE
  5
78E8
  8
0
  6
CONTINUOUS
 62
     7
 10
-18.300000000000001
 20
3.0
 30
0.0
 11
-19.699999999999999
 21
3.0
 31
0.0
  0
LINE
  5
78E9
  8
0
  6
CONTINUOUS
 62
     7
 10
-18.300000000000001
 20
-3.0
 30
0.0
 11
-19.699999999999999
 21
-3.0
 31
0.0
  0
LINE
  5
78EB
  8
0
  6
CONTINUOUS
 62
     7
 10
-17.060660171779819
 20
-6.0
 30
0.0
 11
-18.0
 21
-6.0
 31
0.0
  0
LINE
  5
78EC
  8
0
  6
CONTINUOUS
 62
     7
 10
-18.0
 20
-3.2999999999999989
 30
0.0
 11
-18.0
 21
-6.0
 31
0.0
  0
LINE
  5
78ED
  8
0
  6
CONTINUOUS
 62
     7
 10
-20.0
 20
-3.2999999999999989
 30
0.0
 11
-20.0
 21
-9.0
 31
0.0
  0
LINE
  5
78F1
  8
0
  6
CONTINUOUS
 62
     7
 10
-17.060660171779819
 20
6.0
 30
0.0
 11
-18.0
 21
6.0
 31
0.0
  0
LINE
  5
78F6
  8
0
  6
CONTINUOUS
 62
     7
 10
-13.933012701892221
 20
-0.4035898384862267
 30
0.0
 11
-13.699999999999999
 21
-0.0000000000000001
 31
0.0
  0
LINE
  5
78F7
  8
0
  6
CONTINUOUS
 62
     7
 10
-13.933012701892221
 20
0.4035898384862242
 30
0.0
 11
-13.699999999999999
 21
0.0000000000000001
 31
0.0
  0
LINE
  5
78FC
  8
0
  6
CONTINUOUS
 62
     7
 10
-14.0
 20
-2.5
 30
0.0
 11
-14.0
 21
-2.9393398282201781
 31
0.0
  0
LINE
  5
7900
  8
0
  6
CONTINUOUS
 62
     7
 10
-14.0
 20
2.939339828220179
 30
0.0
 11
-17.060660171779819
 21
6.0
 31
0.0
  0
LINE
  5
7901
  8
0
  6
CONTINUOUS
 62
     7
 10
-14.0
 20
-2.9393398282201781
 30
0.0
 11
-17.060660171779819
 21
-6.0
 31
0.0
  0
LINE
  5
7929
  8
0
  6
CONTINUOUS
 62
     7
 10
-14.0
 20
-2.5
 30
0.0
 11
-13.75097659248407
 21
-1.218885628793311
 31
0.0
  0
ARC
  5
792A
  8
0
  6
CONTINUOUS
 62
     7
 10
-13.5
 20
-0.6535898384862268
 30
0.0
 40
0.5
 50
150.0
 51
210.0
  0
LINE
  5
792B
  8
0
  6
CONTINUOUS
 62
     7
 10
-13.933012701892221
 20
-0.9035898384862267
 30
0.0
 11
-13.75097659248407
 21
-1.218885628793311
 31
0.0
  0
ARC
  5
7933
  8
0
  6
CONTINUOUS
 62
     7
 10
-13.5
 20
0.6535898384862242
 30
0.0
 40
0.5
 50
180.0
 51
210.0
  0
ARC
  5
7934
  8
0
  6
CONTINUOUS
 62
     7
 10
-18.300000000000001
 20
3.2999999999999989
 30
0.0
 40
0.3
 50
270.0
 51
0.0
  0
ARC
  5
7935
  8
0
  6
CONTINUOUS
 62
     7
 10
-19.699999999999999
 20
3.2999999999999989
 30
0.0
 40
0.3
 50
180.0
 51
270.0
  0
ARC
  5
7936
  8
0
  6
CONTINUOUS
 62
     7
 10
-18.300000000000001
 20
-3.2999999999999989
 30
0.0
 40
0.3
 50
0.0
 51
90.0
  0
ARC
  5
7937
  8
0
  6
CONTINUOUS
 62
     7
 10
-19.699999999999999
 20
-3.2999999999999989
 30
0.0
 40
0.3
 50
90.0
 51
180.0
  0
LINE
  5
793D
  8
0
  6
CONTINUOUS
 62
     7
 10
-12.939339828220181
 20
-4.0
 30
0.0
 11
-10.65358983848623
 21
-4.0
 31
0.0
  0
LINE
  5
793E
  8
0
  6
CONTINUOUS
 62
     7
 10
-7.5000000000000009
 20
-4.0
 30
0.0
 11
-7.0606601717798236
 21
-4.0
 31
0.0
  0
ARC
  5
793F
  8
0
  6
CONTINUOUS
 62
     7
 10
-13.300000000000001
 20
-9.7000000000000028
 30
0.0
 40
0.3
 50
270.0
 51
0.0
  0
LINE
  5
7940
  8
0
  6
CONTINUOUS
 62
     7
 10
-16.0
 20
-8.0
 30
0.0
 11
-13.300000000000001
 21
-8.0
 31
0.0
  0
ARC
  5
7941
  8
0
  6
CONTINUOUS
 62
     7
 10
-13.300000000000001
 20
-8.2999999999999972
 30
0.0
 40
0.3
 50
0.0
 51
90.0
  0
LINE
  5
7942
  8
0
  6
CONTINUOUS
 62
     7
 10
-6.7000000000000037
 20
-8.0
 30
0.0
 11
-4.0000000000000009
 21
-8.0
 31
0.0
  0
ARC
  5
7943
  8
0
  6
CONTINUOUS
 62
     7
 10
-6.7000000000000037
 20
-8.2999999999999972
 30
0.0
 40
0.3
 50
90.0
 51
180.0
  0
LINE
  5
7945
  8
0
  6
CONTINUOUS
 62
     7
 10
-4.0000000000000009
 20
-7.0606601717798219
 30
0.0
 11
-4.0000000000000009
 21
-8.0
 31
0.0
  0
LINE
  5
7946
  8
0
  6
CONTINUOUS
 62
     7
 10
-16.0
 20
-7.0606601717798148
 30
0.0
 11
-16.0
 21
-8.0
 31
0.0
  0
LINE
  5
7947
  8
0
  6
CONTINUOUS
 62
     7
 10
-7.0000000000000009
 20
-8.2999999999999972
 30
0.0
 11
-7.0000000000000009
 21
-9.7000000000000028
 31
0.0
  0
ARC
  5
7948
  8
0
  6
CONTINUOUS
 62
     7
 10
-6.7000000000000037
 20
-9.7000000000000028
 30
0.0
 40
0.3
 50
180.0
 51
270.0
  0
LINE
  5
7949
  8
0
  6
CONTINUOUS
 62
     7
 10
-13.0
 20
-8.2999999999999972
 30
0.0
 11
-13.0
 21
-9.7000000000000028
 31
0.0
  0
LINE
  5
794A
  8
0
  6
CONTINUOUS
 62
     7
 10
-9.5964101615137753
 20
-3.9330127018922241
 30
0.0
 11
-10.0
 21
-3.700000000000002
 31
0.0
  0
LINE
  5
794B
  8
0
  6
CONTINUOUS
 62
     7
 10
-10.40358983848623
 20
-3.9330127018922161
 30
0.0
 11
-10.0
 21
-3.700000000000002
 31
0.0
  0
ARC
  5
794C
  8
0
  6
CONTINUOUS
 62
     7
 10
-10.65358983848623
 20
-3.5
 30
0.0
 40
0.5
 50
270.0
 51
299.99999999999989
  0
LINE
  5
794D
  8
0
  6
CONTINUOUS
 62
     7
 10
-7.0606601717798236
 20
-4.0
 30
0.0
 11
-4.0000000000000009
 21
-7.0606601717798219
 31
0.0
  0
LINE
  5
794E
  8
0
  6
CONTINUOUS
 62
     7
 10
-12.939339828220181
 20
-4.0
 30
0.0
 11
-16.0
 21
-7.0606601717798219
 31
0.0
  0
LINE
  5
794F
  8
0
  6
CONTINUOUS
 62
     7
 10
-7.5000000000000009
 20
-4.0
 30
0.0
 11
-8.7811143712066926
 21
-3.7509765924840721
 31
0.0
  0
ARC
  5
7950
  8
0
  6
CONTINUOUS
 62
     7
 10
-9.3464101615137753
 20
-3.5
 30
0.0
 40
0.5
 50
240.0000000000002
 51
299.99999999999989
  0
LINE
  5
7951
  8
0
  6
CONTINUOUS
 62
     7
 10
-9.0964101615137753
 20
-3.9330127018922241
 30
0.0
 11
-8.7811143712066926
 21
-3.7509765924840721
 31
0.0
  0
LINE
  5
7952
  8
0
  6
CONTINUOUS
 62
     7
 10
-13.300000000000001
 20
-10.0
 30
0.0
 11
-19.0
 21
-10.0
 31
0.0
  0
LINE
  5
7954
  8
0
  6
CONTINUOUS
 62
     7
 10
-12.939339828220181
 20
4.0
 30
0.0
 11
-16.0
 21
7.0606601717798219
 31
0.0
  0
LINE
  5
7955
  8
0
  6
CONTINUOUS
 62
     7
 10
-16.0
 20
8.0
 30
0.0
 11
-16.0
 21
7.0606601717798219
 31
0.0
  0
CIRCLE
  5
7957
  8
0
  6
CONTINUOUS
 62
     7
 10
-10.0
 20
0.0
 30
0.0
 40
2.1000000000000001
  0
ARC
  5
7959
  8
0
  6
CONTINUOUS
 62
     7
 10
19.0
 20
9.0
 30
0.0
 40
1.0
 50
0.0
 51
90.0
  0
ARC
  5
795A
  8
0
  6
CONTINUOUS
 62
     7
 10
19.0
 20
-9.0
 30
0.0
 40
1.0
 50
270.0
 51
0.0
  0
ARC
  5
795B
  8
0
  6
CONTINUOUS
 62
     7
 10
-19.0
 20
-9.0
 30
0.0
 40
1.0
 50
180.0
 51
270.0
  0
ARC
  5
795C
  8
0
  6
CONTINUOUS
 62
     7
 10
-19.0
 20
9.0
 30
0.0
 40
1.0
 50
90.0
 51
180.0
  0
LINE
  5
7964
  8
0
  6
CONTINUOUS
 62
     7
 10
97.397695971858795
 20
10.0
 30
0.0
 11
47.397695971858802
 21
10.0
 31
0.0
  0
LINE
  5
7965
  8
0
  6
CONTINUOUS
 62
     7
 10
97.397695971858795
 20
-10.0
 30
0.0
 11
47.397695971858802
 21
-10.0
 31
0.0
  0
LINE
  5
7966
  8
CENTER
  6
CENTER
 62
     1
 10
99.397695971858809
 20
0.0
 30
0.0
 11
45.397695971858802
 21
0.0
 31
0.0
  0
LINE
  5
7967
  8
0
  6
CONTINUOUS
 62
     7
 10
47.397695971858788
 20
10.0
 30
0.0
 11
47.397695971858788
 21
-10.0
 31
0.0
  0
LINE
  5
79AB
  8
0
  6
CONTINUOUS
 62
     7
 10
97.397695971858795
 20
10.0
 30
0.0
 11
97.397695971858795
 21
-10.0
 31
0.0
  0
INSERT
  5
79AD
  8
0
  6
CONTINUOUS
 62
     7
  2
*U2
 10
0.0
 20
0.0
 30
0.0
  0
INSERT
  5
79AE
  8
0
  6
CONTINUOUS
 62
     7
  2
*U3
 10
0.0
 20
0.0
 30
0.0
  0
LINE
  5
7A44
  8
0
  6
CONTINUOUS
 62
     7
 10
14.0
 20
-2.9393398282201799
 30
0.0
 11
14.0
 21
-0.6535898384862229
 31
0.0
  0
LINE
  5
7A45
  8
0
  6
CONTINUOUS
 62
     7
 10
14.0
 20
2.5
 30
0.0
 11
14.0
 21
2.9393398282201768
 31
0.0
  0
ARC
  5
7A46
  8
0
  6
CONTINUOUS
 62
     7
 10
19.699999999999989
 20
-3.2999999999999972
 30
0.0
 40
0.3
 50
0.0
 51
90.0
  0
LINE
  5
7A47
  8
0
  6
CONTINUOUS
 62
     7
 10
18.0
 20
-6.0
 30
0.0
 11
18.0
 21
-3.2999999999999972
 31
0.0
  0
ARC
  5
7A48
  8
0
  6
CONTINUOUS
 62
     7
 10
18.300000000000001
 20
-3.2999999999999972
 30
0.0
 40
0.3
 50
90.0
 51
180.0
  0
LINE
  5
7A49
  8
0
  6
CONTINUOUS
 62
     7
 10
18.0
 20
3.2999999999999972
 30
0.0
 11
18.0
 21
6.0
 31
0.0
  0
ARC
  5
7A4A
  8
0
  6
CONTINUOUS
 62
     7
 10
18.300000000000001
 20
3.2999999999999972
 30
0.0
 40
0.3
 50
180.0
 51
270.0
  0
LINE
  5
7A4C
  8
0
  6
CONTINUOUS
 62
     7
 10
17.060660171779819
 20
6.0
 30
0.0
 11
18.0
 21
6.0
 31
0.0
  0
LINE
  5
7A4D
  8
0
  6
CONTINUOUS
 62
     7
 10
17.060660171779809
 20
-6.0
 30
0.0
 11
18.0
 21
-6.0
 31
0.0
  0
LINE
  5
7A4E
  8
0
  6
CONTINUOUS
 62
     7
 10
18.300000000000001
 20
3.0
 30
0.0
 11
19.699999999999999
 21
3.0
 31
0.0
  0
ARC
  5
7A4F
  8
0
  6
CONTINUOUS
 62
     7
 10
19.699999999999999
 20
3.2999999999999972
 30
0.0
 40
0.3
 50
270.0
 51
0.0
  0
LINE
  5
7A50
  8
0
  6
CONTINUOUS
 62
     7
 10
18.300000000000001
 20
-3.0
 30
0.0
 11
19.699999999999989
 21
-3.0
 31
0.0
  0
LINE
  5
7A51
  8
0
  6
CONTINUOUS
 62
     7
 10
13.933012701892221
 20
0.4035898384862265
 30
0.0
 11
13.699999999999999
 21
0.0
 31
0.0
  0
LINE
  5
7A52
  8
0
  6
CONTINUOUS
 62
     7
 10
13.93301270189221
 20
-0.4035898384862229
 30
0.0
 11
13.699999999999999
 21
0.0
 31
0.0
  0
ARC
  5
7A53
  8
0
  6
CONTINUOUS
 62
     7
 10
13.5
 20
-0.6535898384862229
 30
0.0
 40
0.5
 50
0.0
 51
30.000000000000082
  0
LINE
  5
7A54
  8
0
  6
CONTINUOUS
 62
     7
 10
14.0
 20
2.9393398282201768
 30
0.0
 11
17.060660171779819
 21
6.0
 31
0.0
  0
LINE
  5
7A55
  8
0
  6
CONTINUOUS
 62
     7
 10
14.0
 20
-2.9393398282201799
 30
0.0
 11
17.060660171779809
 21
-6.0
 31
0.0
  0
LINE
  5
7A56
  8
0
  6
CONTINUOUS
 62
     7
 10
14.0
 20
2.5
 30
0.0
 11
13.75097659248407
 21
1.2188856287933121
 31
0.0
  0
ARC
  5
7A57
  8
0
  6
CONTINUOUS
 62
     7
 10
13.5
 20
0.6535898384862265
 30
0.0
 40
0.5
 50
329.99999999999989
 51
30.000000000000082
  0
LINE
  5
7A58
  8
0
  6
CONTINUOUS
 62
     7
 10
13.933012701892221
 20
0.9035898384862264
 30
0.0
 11
13.75097659248407
 21
1.2188856287933121
 31
0.0
  0
LINE
  5
7A59
  8
0
  6
CONTINUOUS
 62
     7
 10
20.0
 20
-3.2999999999999972
 30
0.0
 11
20.0
 21
-9.0
 31
0.0
  0
LINE
  5
7A66
  8
0
  6
CONTINUOUS
 62
     7
 10
47.397695971858788
 20
3.0
 30
0.0
 11
97.397695971858795
 21
3.0
 31
0.0
  0
LINE
  5
7A67
  8
0
  6
CONTINUOUS
 62
     7
 10
47.397695971858788
 20
2.5
 30
0.0
 11
97.397695971858781
 21
2.5
 31
0.0
  0
LINE
  5
7A68
  8
0
  6
CONTINUOUS
 62
     7
 10
47.397695971858788
 20
1.2188856287933121
 30
0.0
 11
97.397695971858795
 21
1.2188856287933121
 31
0.0
  0
LINE
  5
7A69
  8
0
  6
CONTINUOUS
 62
     7
 10
47.397695971858788
 20
0.0
 30
0.0
 11
97.397695971858795
 21
0.0
 31
0.0
  0
LINE
  5
7A6A
  8
0
  6
CONTINUOUS
 62
     7
 10
47.397695971858788
 20
-2.9999999999999969
 30
0.0
 11
97.397695971858795
 21
-2.9999999999999969
 31
0.0
  0
LINE
  5
7AF3
  8
CENTER
  6
CENTER
 62
     1
 10
0.0
 20
12.0
 30
0.0
 11
0.0
 21
-12.0
 31
0.0
  0
LINE
  5
7AF4
  8
CENTER
  6
CENTER
 62
     1
 10
9.9999999999999982
 20
6.0
 30
0.0
 11
9.9999999999999982
 21
-6.0
 31
0.0
  0
LINE
  5
7AF5
  8
0
  6
CONTINUOUS
 62
     7
 10
7.060660171779813
 20
-4.0
 30
0.0
 11
9.3464101615137718
 21
-4.0
 31
0.0
  0
LINE
  5
7AF6
  8
0
  6
CONTINUOUS
 62
     7
 10
12.5
 20
-4.0
 30
0.0
 11
12.93933982822017
 21
-4.0
 31
0.0
  0
ARC
  5
7AF7
  8
0
  6
CONTINUOUS
 62
     7
 10
6.6999999999999931
 20
-9.7000000000000028
 30
0.0
 40
0.3
 50
270.0
 51
0.0
  0
LINE
  5
7AF8
  8
0
  6
CONTINUOUS
 62
     7
 10
3.9999999999999978
 20
-8.0
 30
0.0
 11
6.6999999999999931
 21
-8.0
 31
0.0
  0
ARC
  5
7AF9
  8
0
  6
CONTINUOUS
 62
     7
 10
6.6999999999999931
 20
-8.2999999999999972
 30
0.0
 40
0.3
 50
0.0
 51
90.0
  0
LINE
  5
7AFA
  8
0
  6
CONTINUOUS
 62
     7
 10
13.29999999999999
 20
-8.0
 30
0.0
 11
16.0
 21
-8.0
 31
0.0
  0
ARC
  5
7AFB
  8
0
  6
CONTINUOUS
 62
     7
 10
13.29999999999999
 20
-8.2999999999999972
 30
0.0
 40
0.3
 50
90.0
 51
180.0
  0
LINE
  5
7AFC
  8
0
  6
CONTINUOUS
 62
     7
 10
16.0
 20
-7.0606601717798219
 30
0.0
 11
16.0
 21
-8.0
 31
0.0
  0
LINE
  5
7AFD
  8
0
  6
CONTINUOUS
 62
     7
 10
3.9999999999999978
 20
-7.0606601717798148
 30
0.0
 11
3.9999999999999978
 21
-8.0
 31
0.0
  0
LINE
  5
7AFE
  8
0
  6
CONTINUOUS
 62
     7
 10
13.0
 20
-8.2999999999999972
 30
0.0
 11
13.0
 21
-9.7000000000000028
 31
0.0
  0
ARC
  5
7AFF
  8
0
  6
CONTINUOUS
 62
     7
 10
13.29999999999999
 20
-9.7000000000000028
 30
0.0
 40
0.3
 50
180.0
 51
270.0
  0
LINE
  5
7B00
  8
0
  6
CONTINUOUS
 62
     7
 10
6.9999999999999982
 20
-8.2999999999999972
 30
0.0
 11
6.9999999999999982
 21
-9.7000000000000028
 31
0.0
  0
LINE
  5
7B01
  8
0
  6
CONTINUOUS
 62
     7
 10
10.403589838486219
 20
-3.9330127018922241
 30
0.0
 11
9.9999999999999982
 21
-3.700000000000002
 31
0.0
  0
LINE
  5
7B02
  8
0
  6
CONTINUOUS
 62
     7
 10
9.5964101615137718
 20
-3.9330127018922161
 30
0.0
 11
9.9999999999999982
 21
-3.700000000000002
 31
0.0
  0
ARC
  5
7B03
  8
0
  6
CONTINUOUS
 62
     7
 10
9.3464101615137718
 20
-3.5
 30
0.0
 40
0.5
 50
270.0
 51
300.0
  0
LINE
  5
7B04
  8
0
  6
CONTINUOUS
 62
     7
 10
12.93933982822017
 20
-4.0
 30
0.0
 11
16.0
 21
-7.0606601717798219
 31
0.0
  0
LINE
  5
7B05
  8
0
  6
CONTINUOUS
 62
     7
 10
7.060660171779813
 20
-4.0
 30
0.0
 11
3.9999999999999978
 21
-7.0606601717798219
 31
0.0
  0
LINE
  5
7B06
  8
0
  6
CONTINUOUS
 62
     7
 10
12.5
 20
-4.0
 30
0.0
 11
11.2188856287933
 21
-3.7509765924840721
 31
0.0
  0
ARC
  5
7B07
  8
0
  6
CONTINUOUS
 62
     7
 10
10.653589838486219
 20
-3.5
 30
0.0
 40
0.5
 50
240.0
 51
300.0
  0
LINE
  5
7B08
  8
0
  6
CONTINUOUS
 62
     7
 10
10.903589838486219
 20
-3.9330127018922241
 30
0.0
 11
11.2188856287933
 21
-3.7509765924840721
 31
0.0
  0
LINE
  5
7B0F
  8
0
  6
CONTINUOUS
 62
     7
 10
13.29999999999999
 20
-10.0
 30
0.0
 11
19.0
 21
-10.0
 31
0.0
  0
LINE
  5
7B11
  8
0
  6
CONTINUOUS
 62
     7
 10
8.4999999999999982
 20
4.0
 30
0.0
 11
12.939339828220181
 21
4.0
 31
0.0
  0
LINE
  5
7B12
  8
0
  6
CONTINUOUS
 62
     7
 10
8.4999999999999982
 20
8.0
 30
0.0
 11
16.0
 21
8.0
 31
0.0
  0
LINE
  5
7B14
  8
0
  6
CONTINUOUS
 62
     7
 10
12.939339828220181
 20
4.0
 30
0.0
 11
16.0
 21
7.0606601717798254
 31
0.0
  0
LINE
  5
7B16
  8
0
  6
CONTINUOUS
 62
     7
 10
16.0
 20
8.0
 30
0.0
 11
16.0
 21
7.0606601717798201
 31
0.0
  0
LINE
  5
7B18
  8
0
  6
CONTINUOUS
 62
     7
 10
-7.5
 20
7.0
 30
0.0
 11
-7.5
 21
5.0
 31
0.0
  0
LINE
  5
7B19
  8
0
  6
CONTINUOUS
 62
     7
 10
7.4999999999999982
 20
7.0
 30
0.0
 11
7.4999999999999982
 21
5.0
 31
0.0
  0
LINE
  5
7B1A
  8
0
  6
CONTINUOUS
 62
     7
 10
-6.0
 20
7.0
 30
0.0
 11
-6.0
 21
-2.9393398282201821
 31
0.0
  0
LINE
  5
7B1B
  8
0
  6
CONTINUOUS
 62
     7
 10
5.9999999999999982
 20
7.0
 30
0.0
 11
5.9999999999999982
 21
-2.9393398282201728
 31
0.0
  0
LINE
  5
7B1C
  8
0
  6
CONTINUOUS
 62
     7
 10
-6.0000000000000027
 20
-2.939339828220179
 30
0.0
 11
-2.087867965644036
 21
-6.8514718625761448
 31
0.0
  0
LINE
  5
7B1D
  8
0
  6
CONTINUOUS
 62
     7
 10
5.9999999999999911
 20
-2.939339828220179
 30
0.0
 11
2.0878679656440351
 21
-6.8514718625761457
 31
0.0
  0
LINE
  5
7B1F
  8
0
  6
CONTINUOUS
 62
     7
 10
-5.0
 20
8.0
 30
0.0
 11
4.9999999999999982
 21
8.0
 31
0.0
  0
LINE
  5
7B20
  8
0
  6
CONTINUOUS
 62
     7
 10
1.999999999999998
 20
-7.0636038969321104
 30
0.0
 11
1.999999999999998
 21
-7.7000000000000002
 31
0.0
  0
LINE
  5
7B21
  8
0
  6
CONTINUOUS
 62
     7
 10
-2.0000000000000009
 20
-7.0636038969321087
 30
0.0
 11
-2.0000000000000009
 21
-7.7000000000000002
 31
0.0
  0
LINE
  5
7B22
  8
0
  6
CONTINUOUS
 62
     7
 10
-1.7000000000000011
 20
-8.0
 30
0.0
 11
1.6999999999999971
 21
-8.0
 31
0.0
  0
CIRCLE
  5
7B28
  8
0
  6
CONTINUOUS
 62
     7
 10
9.9999999999999982
 20
0.0
 30
0.0
 40
2.1000000000000001
  0
ARC
  5
7B29
  8
0
  6
CONTINUOUS
 62
     7
 10
8.4999999999999982
 20
5.0
 30
0.0
 40
1.0
 50
180.0
 51
270.0
  0
ARC
  5
7B2A
  8
0
  6
CONTINUOUS
 62
     7
 10
8.4999999999999982
 20
7.0
 30
0.0
 40
1.0
 50
90.0
 51
180.0
  0
ARC
  5
7B2B
  8
0
  6
CONTINUOUS
 62
     7
 10
4.9999999999999982
 20
7.0
 30
0.0
 40
1.0
 50
0.0
 51
90.0
  0
ARC
  5
7B2C
  8
0
  6
CONTINUOUS
 62
     7
 10
-5.0
 20
7.0
 30
0.0
 40
1.0
 50
90.0
 51
180.0
  0
ARC
  5
7B2D
  8
0
  6
CONTINUOUS
 62
     7
 10
-8.5
 20
7.0
 30
0.0
 40
1.0
 50
0.0
 51
90.0
  0
ARC
  5
7B2E
  8
0
  6
CONTINUOUS
 62
     7
 10
-8.5
 20
5.0
 30
0.0
 40
1.0
 50
270.0
 51
0.0
  0
ARC
  5
7B2F
  8
0
  6
CONTINUOUS
 62
     7
 10
-2.3000000000000012
 20
-7.0636038969321087
 30
0.0
 40
0.3
 50
0.0
 51
44.999999999999979
  0
ARC
  5
7B30
  8
0
  6
CONTINUOUS
 62
     7
 10
-1.7000000000000011
 20
-7.7000000000000002
 30
0.0
 40
0.3
 50
180.0
 51
270.0
  0
ARC
  5
7B31
  8
0
  6
CONTINUOUS
 62
     7
 10
2.299999999999998
 20
-7.0636038969321104
 30
0.0
 40
0.3
 50
135.0
 51
180.0
  0
ARC
  5
7B32
  8
0
  6
CONTINUOUS
 62
     7
 10
1.6999999999999971
 20
-7.7000000000000002
 30
0.0
 40
0.3
 50
270.0
 51
0.0
  0
LINE
  5
7B7A
  8
0
  6
CONTINUOUS
 62
     7
 10
47.397695971858788
 20
2.9393398282201768
 30
0.0
 11
97.397695971858795
 21
2.9393398282201768
 31
0.0
  0
LINE
  5
7B7B
  8
0
  6
CONTINUOUS
 62
     7
 10
47.397695971858788
 20
-2.9393398282201799
 30
0.0
 11
97.397695971858795
 21
-2.9393398282201799
 31
0.0
  0
VIEWPORT
  5
6D16
 67
     1
  8
0
  6
CONTINUOUS
 62
     7
 10
128.5
 20
97.5
 30
0.0
 40
622.87456647398835
 41
222.18000000000001
 68
     1
 69
     1
1001
ACAD
1000
MVIEW
1002
{
1070
    16
1010
0.0
1020
0.0
1030
0.0
1010
0.0
1020
0.0
1030
1.0
1040
0.0
1040
222.18000000000001
1040
128.5
1040
97.5
1040
50.0
1040
0.0
1040
0.0
1070
     0
1070
  1000
1070
     1
1070
     1
1070
     0
1070
     0
1070
     0
1070
     0
1040
0.0
1040
0.0
1040
0.0
1040
10.0
1040
10.0
1040
10.0
1040
10.0
1070
     0
1002
{
1002
}
1002
}
  0
VIEWPORT
  5
6D1B
 67
     1
  8
0
  6
CONTINUOUS
 62
     7
 10
128.5
 20
97.5
 30
0.0
 40
205.59999999999999
 41
156.0
 68
     2
 69
     2
1001
ACAD
1000
MVIEW
1002
{
1070
    16
1010
0.0
1020
0.0
1030
0.0
1010
0.0
1020
0.0
1030
1.0
1040
0.0
1040
268.34382130111919
1040
166.06711243968169
1040
53.835407184513031
1040
50.0
1040
0.0
1040
0.0
1070
     0
1070
  1000
1070
     1
1070
     3
1070
     0
1070
     0
1070
     0
1070
     0
1040
0.0
1040
0.0
1040
0.0
1040
10.0
1040
10.0
1040
10.0
1040
10.0
1070
     0
1002
{
1002
}
1002
}
  0
ENDSEC
  0
EOF
