  0
SECTION
  2
HEADER
  9
$ACADVER
  1
AC1009
  9
$INSBASE
 10
0.0
 20
0.0
 30
0.0
  9
$EXTMIN
 10
-0.0000001517079795
 20
-0.0000001334724981
 30
0.0
  9
$EXTMAX
 10
82.5
 20
62.5
 30
0.0
  9
$LIMMIN
 10
0.0
 20
0.0
  9
$LIMMAX
 10
297.0
 20
210.0
  9
$ORTHOMODE
 70
     0
  9
$REGENMODE
 70
     1
  9
$FILLMODE
 70
     1
  9
$QTEXTMODE
 70
     0
  9
$MIRRTEXT
 70
     1
  9
$DRAGMODE
 70
     2
  9
$LTSCALE
 40
1.0
  9
$OSMODE
 70
    57
  9
$ATTMODE
 70
     1
  9
$TEXTSIZE
 40
6.4000000000000012
  9
$TRACEWID
 40
0.05
  9
$TEXTSTYLE
  7
STANDARD
  9
$CLAYER
  8
0
  9
$CELTYPE
  6
CONTINUOUS
  9
$CECOLOR
 62
     7
  9
$DIMSCALE
 40
1.0
  9
$DIMASZ
 40
3.0
  9
$DIMEXO
 40
1.0
  9
$DIMDLI
 40
0.0
  9
$DIMRND
 40
0.0
  9
$DIMDLE
 40
0.0
  9
$DIMEXE
 40
1.0
  9
$DIMTP
 40
0.0
  9
$DIMTM
 40
0.0
  9
$DIMTXT
 40
3.2000000000000002
  9
$DIMCEN
 40
0.0
  9
$DIMTSZ
 40
0.0
  9
$DIMTOL
 70
     0
  9
$DIMLIM
 70
     0
  9
$DIMTIH
 70
     0
  9
$DIMTOH
 70
     0
  9
$DIMSE1
 70
     0
  9
$DIMSE2
 70
     0
  9
$DIMTAD
 70
     1
  9
$DIMZIN
 70
     8
  9
$DIMBLK
  1

  9
$DIMASO
 70
     1
  9
$DIMSHO
 70
     1
  9
$DIMPOST
  1

  9
$DIMAPOST
  1

  9
$DIMALT
 70
     0
  9
$DIMALTD
 70
     2
  9
$DIMALTF
 40
0.04
  9
$DIMLFAC
 40
1.0
  9
$DIMTOFL
 70
     1
  9
$DIMTVP
 40
1.0
  9
$DIMTIX
 70
     1
  9
$DIMSOXD
 70
     0
  9
$DIMSAH
 70
     0
  9
$DIMBLK1
  1

  9
$DIMBLK2
  1

  9
$DIMSTYLE
  2
MISUMI
  9
$DIMCLRD
 70
     0
  9
$DIMCLRE
 70
     0
  9
$DIMCLRT
 70
     0
  9
$DIMTFAC
 40
0.6
  9
$DIMGAP
 40
1.0
  9
$LUNITS
 70
     2
  9
$LUPREC
 70
     4
  9
$SKETCHINC
 40
0.1
  9
$FILLETRAD
 40
0.0
  9
$AUNITS
 70
     0
  9
$AUPREC
 70
     0
  9
$MENU
  1
acad
  9
$ELEVATION
 40
0.0
  9
$PELEVATION
 40
0.0
  9
$THICKNESS
 40
0.0
  9
$LIMCHECK
 70
     0
  9
$BLIPMODE
 70
     1
  9
$CHAMFERA
 40
0.5
  9
$CHAMFERB
 40
0.5
  9
$SKPOLY
 70
     0
  9
$TDCREATE
 40
2451464.6006649309
  9
$TDUPDATE
 40
2453776.6943098959
  9
$TDINDWG
 40
0.3082610532
  9
$TDUSRTIMER
 40
0.3082587037
  9
$USRTIMER
 70
     1
  9
$ANGBASE
 50
0.0
  9
$ANGDIR
 70
     0
  9
$PDMODE
 70
     0
  9
$PDSIZE
 40
0.0
  9
$PLINEWID
 40
0.0
  9
$COORDS
 70
     0
  9
$SPLFRAME
 70
     0
  9
$SPLINETYPE
 70
     6
  9
$SPLINESEGS
 70
     8
  9
$ATTDIA
 70
     0
  9
$ATTREQ
 70
     1
  9
$HANDLING
 70
     1
  9
$HANDSEED
  5
49EE
  9
$SURFTAB1
 70
     6
  9
$SURFTAB2
 70
     6
  9
$SURFTYPE
 70
     6
  9
$SURFU
 70
     6
  9
$SURFV
 70
     6
  9
$UCSNAME
  2

  9
$UCSORG
 10
0.0
 20
0.0
 30
0.0
  9
$UCSXDIR
 10
1.0
 20
0.0
 30
0.0
  9
$UCSYDIR
 10
0.0
 20
1.0
 30
0.0
  9
$PUCSNAME
  2

  9
$PUCSORG
 10
0.0
 20
0.0
 30
0.0
  9
$PUCSXDIR
 10
1.0
 20
0.0
 30
0.0
  9
$PUCSYDIR
 10
0.0
 20
1.0
 30
0.0
  9
$USERI1
 70
     0
  9
$USERI2
 70
     0
  9
$USERI3
 70
     0
  9
$USERI4
 70
     0
  9
$USERI5
 70
     0
  9
$USERR1
 40
0.0
  9
$USERR2
 40
0.0
  9
$USERR3
 40
0.0
  9
$USERR4
 40
0.0
  9
$USERR5
 40
0.0
  9
$WORLDVIEW
 70
     1
  9
$SHADEDGE
 70
     3
  9
$SHADEDIF
 70
    70
  9
$TILEMODE
 70
     1
  9
$MAXACTVP
 70
    16
  9
$PLIMCHECK
 70
     0
  9
$PEXTMIN
 10
1.0000000000000000E+020
 20
1.0000000000000000E+020
 30
1.0000000000000000E+020
  9
$PEXTMAX
 10
-1.0000000000000000E+020
 20
-1.0000000000000000E+020
 30
-1.0000000000000000E+020
  9
$PLIMMIN
 10
0.0
 20
0.0
  9
$PLIMMAX
 10
12.0
 20
9.0
  9
$UNITMODE
 70
     0
  9
$VISRETAIN
 70
     0
  9
$PLINEGEN
 70
     0
  9
$PSLTSCALE
 70
     1
  0
ENDSEC
  0
SECTION
  2
TABLES
  0
TABLE
  2
VPORT
 70
     2
  0
VPORT
  2
*ACTIVE
 70
     0
 10
0.0
 20
0.0
 11
1.0
 21
1.0
 12
41.245721048716291
 22
31.246529391687979
 13
0.0
 23
0.0
 14
10.0
 24
10.0
 15
10.0
 25
10.0
 16
0.0
 26
0.0
 36
1.0
 17
0.0
 27
0.0
 37
0.0
 40
62.986413140971173
 41
1.5717852684144811
 42
50.0
 43
0.0
 44
0.0
 50
0.0
 51
0.0
 71
     0
 72
   100
 73
     1
 74
     0
 75
     0
 76
     0
 77
     0
 78
     0
  0
ENDTAB
  0
TABLE
  2
LTYPE
 70
     3
  0
LTYPE
  2
CONTINUOUS
 70
     0
  3
Solid line
 72
    65
 73
     0
 40
0.0
  0
LTYPE
  2
CENTER
 70
     0
  3
Center ____ _ ____ _ ____ _ ____ _ ____ _ ____
 72
    65
 73
     4
 40
2.0
 49
1.25
 49
-0.25
 49
0.25
 49
-0.25
  0
LTYPE
  2
DASHED
 70
     0
  3
Dashed __ __ __ __ __ __ __ __ __ __ __ __ __ _
 72
    65
 73
     2
 40
0.75
 49
0.5
 49
-0.25
  0
ENDTAB
  0
TABLE
  2
LAYER
 70
     2
  0
LAYER
  2
0
 70
     0
 62
     7
  6
CONTINUOUS
  0
LAYER
  2
CENTER
 70
     0
 62
     1
  6
CENTER
  0
ENDTAB
  0
TABLE
  2
STYLE
 70
     1
  0
STYLE
  2
STANDARD
 70
     0
 40
0.0
 41
1.0
 50
0.0
 71
     0
 42
6.4000000000000012
  3
txt
  4

  0
ENDTAB
  0
TABLE
  2
VIEW
 70
     0
  0
ENDTAB
  0
TABLE
  2
UCS
 70
     0
  0
ENDTAB
  0
TABLE
  2
APPID
 70
     2
  0
APPID
  2
ACAD
 70
     0
  0
APPID
  2
ACAD_DSTYLE_DIMTEXT_FILL
 70
     0
  0
ENDTAB
  0
TABLE
  2
DIMSTYLE
 70
     1
  0
DIMSTYLE
  2
MISUMI
 70
     0
  3

  4

  5

  6

  7

 40
1.0
 41
3.0
 42
1.0
 43
0.0
 44
1.0
 45
0.0
 46
0.0
 47
0.0
 48
0.0
140
3.2000000000000002
141
0.0
142
0.0
143
0.04
144
1.0
145
1.0
146
0.6
147
1.0
 71
     0
 72
     0
 73
     0
 74
     0
 75
     0
 76
     0
 77
     1
 78
     8
170
     0
171
     2
172
     1
173
     0
174
     1
175
     0
176
     0
177
     0
178
     0
  0
ENDTAB
  0
ENDSEC
  0
SECTION
  2
BLOCKS
  0
BLOCK
  8
0
  2
$MODEL_SPACE
 70
     0
 10
0.0
 20
0.0
 30
0.0
  3
$MODEL_SPACE
  1

  0
ENDBLK
  5
49A7
  8
0
  0
BLOCK
 67
     1
  8
0
  2
$PAPER_SPACE
 70
     0
 10
0.0
 20
0.0
 30
0.0
  3
$PAPER_SPACE
  1

  0
ENDBLK
  5
49A3
 67
     1
  8
0
  0
ENDSEC
  0
SECTION
  2
ENTITIES
  0
TEXT
  5
462
  8
0
  6
CONTINUOUS
 62
     7
 10
-0.0000001517079795
 20
8.5987117520439256
 30
0.0
 40
4.0
  1
HFC5-2040
  0
TEXT
  5
463
  8
0
  6
CONTINUOUS
 62
     7
 10
-0.0000001517079795
 20
-0.0000001334724971
 30
0.0
 40
4.0
  1
HFC52040
  0
LINE
  5
538
  8
CENTER
  6
CENTER
 62
     1
 10
37.5
 20
50.0
 30
0.0
 11
82.5
 21
50.000000000000071
 31
0.0
  0
LINE
  5
53A
  8
0
  6
CONTINUOUS
 62
     7
 10
41.0
 20
39.999999999999773
 30
0.0
 11
79.0
 21
40.0
 31
0.0
  0
ARC
  5
53B
  8
0
  6
CONTINUOUS
 62
     7
 10
79.0
 20
41.0
 30
0.0
 40
1.0
 50
270.0
 51
0.0
  0
LINE
  5
53C
  8
0
  6
CONTINUOUS
 62
     7
 10
41.0
 20
60.0
 30
0.0
 11
79.0
 21
60.0
 31
0.0
  0
ARC
  5
53D
  8
0
  6
CONTINUOUS
 62
     7
 10
41.0
 20
58.99999999999995
 30
0.0
 40
1.0
 50
90.0
 51
180.0
  0
LINE
  5
53E
  8
CENTER
  6
CENTER
 62
     1
 10
60.0
 20
62.5
 30
0.0
 11
60.0
 21
37.5
 31
0.0
  0
LINE
  5
53F
  8
CENTER
  6
CENTER
 62
     1
 10
50.0
 20
53.5
 30
0.0
 11
50.0
 21
46.500000000000028
 31
0.0
  0
LINE
  5
540
  8
0
  6
CONTINUOUS
 62
     7
 10
80.0
 20
59.00000000000005
 30
0.0
 11
80.0
 21
41.0
 31
0.0
  0
ARC
  5
541
  8
0
  6
CONTINUOUS
 62
     7
 10
79.0
 20
59.00000000000005
 30
0.0
 40
1.0
 50
0.0
 51
90.000000000000114
  0
LINE
  5
542
  8
0
  6
CONTINUOUS
 62
     7
 10
40.0
 20
58.99999999999995
 30
0.0
 11
40.0
 21
41.0
 31
0.0
  0
ARC
  5
543
  8
0
  6
CONTINUOUS
 62
     7
 10
41.0
 20
41.0
 30
0.0
 40
1.0
 50
180.0
 51
270.0
  0
CIRCLE
  5
544
  8
0
  6
CONTINUOUS
 62
     7
 10
50.0
 20
50.000000000000071
 30
0.0
 40
2.0
  0
CIRCLE
  5
545
  8
0
  6
CONTINUOUS
 62
     7
 10
50.0
 20
50.000000000000071
 30
0.0
 40
1.0
  0
LINE
  5
552
  8
CENTER
  6
CENTER
 62
     1
 10
60.0
 20
28.531828120426368
 30
0.0
 11
60.0
 21
20.5318281204265
 31
0.0
  0
LINE
  5
553
  8
0
  6
CONTINUOUS
 62
     7
 10
80.0
 20
26.031828120426368
 30
0.0
 11
80.0
 21
24.03182812042639
 31
0.0
  0
LINE
  5
554
  8
0
  6
CONTINUOUS
 62
     7
 10
40.0
 20
26.031828120426368
 30
0.0
 11
40.0
 21
24.03182812042639
 31
0.0
  0
ARC
  5
555
  8
0
  6
CONTINUOUS
 62
     7
 10
41.0
 20
24.03182812042639
 30
0.0
 40
1.0
 50
180.0
 51
270.0
  0
LINE
  5
556
  8
0
  6
CONTINUOUS
 62
     7
 10
41.0
 20
23.031828120426368
 30
0.0
 11
79.0
 21
23.031828120426368
 31
0.0
  0
ARC
  5
557
  8
0
  6
CONTINUOUS
 62
     7
 10
79.0
 20
24.03182812042639
 30
0.0
 40
1.0
 50
270.0
 51
0.0
  0
LINE
  5
558
  8
0
  6
CONTINUOUS
 62
     7
 10
40.0
 20
26.031828120426368
 30
0.0
 11
80.0
 21
26.031828120426368
 31
0.0
  0
LINE
  5
55A
  8
0
  6
CONTINUOUS
 62
     7
 10
48.0
 20
32.03182812042639
 30
0.0
 11
52.0
 21
32.03182812042639
 31
0.0
  0
LINE
  5
55B
  8
CENTER
  6
CENTER
 62
     1
 10
50.0
 20
33.53182812042639
 30
0.0
 11
50.0
 21
24.531828120426368
 31
0.0
  0
LINE
  5
55C
  8
0
  6
CONTINUOUS
 62
     7
 10
52.0
 20
32.03182812042639
 30
0.0
 11
52.0
 21
26.031828120426368
 31
0.0
  0
LINE
  5
55D
  8
0
  6
CONTINUOUS
 62
     7
 10
48.0
 20
32.03182812042639
 30
0.0
 11
48.0
 21
26.031828120426368
 31
0.0
  0
LINE
  5
68A
  8
0
  6
DASHED
 62
     3
 10
49.0
 20
32.03182812042639
 30
0.0
 11
49.0
 21
26.031828120426368
 31
0.0
  0
LINE
  5
68B
  8
0
  6
DASHED
 62
     3
 10
51.0
 20
32.03182812042639
 30
0.0
 11
51.0
 21
26.031828120426368
 31
0.0
  0
LINE
  5
692
  8
0
  6
CONTINUOUS
 62
     7
 10
68.0
 20
32.03182812042639
 30
0.0
 11
72.0
 21
32.03182812042639
 31
0.0
  0
LINE
  5
693
  8
CENTER
  6
CENTER
 62
     1
 10
70.0
 20
33.53182812042639
 30
0.0
 11
70.0
 21
24.531828120426368
 31
0.0
  0
LINE
  5
694
  8
0
  6
DASHED
 62
     3
 10
71.0
 20
32.03182812042639
 30
0.0
 11
71.0
 21
26.031828120426368
 31
0.0
  0
LINE
  5
695
  8
0
  6
DASHED
 62
     3
 10
69.0
 20
32.03182812042639
 30
0.0
 11
69.0
 21
26.031828120426368
 31
0.0
  0
LINE
  5
696
  8
0
  6
CONTINUOUS
 62
     7
 10
72.0
 20
32.03182812042639
 30
0.0
 11
72.0
 21
26.031828120426368
 31
0.0
  0
LINE
  5
697
  8
0
  6
CONTINUOUS
 62
     7
 10
68.0
 20
32.03182812042639
 30
0.0
 11
68.0
 21
26.031828120426368
 31
0.0
  0
LINE
  5
69A
  8
CENTER
  6
CENTER
 62
     1
 10
70.0
 20
53.5
 30
0.0
 11
70.0
 21
46.500000000000028
 31
0.0
  0
CIRCLE
  5
69B
  8
0
  6
CONTINUOUS
 62
     7
 10
70.0
 20
50.000000000000071
 30
0.0
 40
2.0
  0
CIRCLE
  5
69C
  8
0
  6
CONTINUOUS
 62
     7
 10
70.0
 20
50.000000000000071
 30
0.0
 40
1.0
  0
ENDSEC
  0
EOF
