<?xml version="1.0" standalone="no"?>
<!DOCTYPE svg PUBLIC "-//W3C//DTD SVG 1.1//EN" "http://www.w3.org/Graphics/SVG/1.1/DTD/svg11.dtd" >
<svg xmlns="http://www.w3.org/2000/svg">
<metadata></metadata>
<defs>
<font id="snellenmedium" horiz-adv-x="2456" >
<font-face units-per-em="2048" ascent="1556" descent="-492" />
<missing-glyph horiz-adv-x="500" />
<glyph horiz-adv-x="0" />
<glyph unicode="&#xd;" />
<glyph unicode="A" d="M0 0l820 2048h408l820 -2048h-410l-164 410h-900l-164 -410h-410zM738 820h572l-286 716z" />
<glyph unicode="B" d="M0 0v410h410v1228h-410v410h820h318h90q188 -26 236 -48q114 -44 198 -132q94 -98 134 -198q48 -114 48 -236q0 -114 -48 -236q-34 -92 -108 -172v-2q76 -88 108 -174q48 -130 48 -236q0 -118 -48 -236q-44 -108 -134 -198q-84 -88 -198 -132q-60 -24 -236 -48h-98h-1130 zM820 410h310h98q42 0 78 16q44 20 68 44q30 34 44 66q16 42 16 78q0 40 -16 78q-18 40 -44 66q-34 34 -68 44q-48 18 -78 18h-78h-330v-410zM820 1228h310h98q42 0 78 16q44 20 68 44q30 34 44 66q16 42 16 78q0 40 -16 78q-18 40 -44 66q-34 34 -68 44q-48 18 -78 18h-78 h-330v-410z" />
<glyph unicode="C" d="M0 1024q0 204 78 394q80 186 224 328q142 144 328 224q190 78 394 78t394 -78q184 -78 220 -126v204h410v-820h-446l-12 34q-44 108 -132 196t-196 132q-114 48 -238 48t-238 -48q-108 -44 -196 -132t-132 -196q-48 -114 -48 -238t48 -238q44 -108 132 -196t196 -132 q114 -48 238 -48t238 48q108 44 196 132t132 196l12 34h446l-78 -190q-80 -190 -226 -326q-136 -146 -326 -226q-190 -78 -394 -78t-394 78q-186 80 -328 224q-144 142 -224 328q-78 190 -78 394z" />
<glyph unicode="D" d="M0 0v410h410v1228h-410v410h1024q204 0 394 -78q186 -80 328 -224q144 -142 224 -328q78 -190 78 -394t-78 -394q-80 -186 -224 -328q-142 -144 -328 -224q-190 -78 -394 -78h-258h-766zM820 410h106h98q124 0 238 48q108 44 196 132t132 196q48 114 48 238t-48 238 q-44 108 -132 196t-196 132q-114 48 -238 48h-204v-1228z" />
<glyph unicode="E" d="M0 0v410h410v1228h-410v410h2048v-820h-410v410h-818v-410h408v-408h-408v-410h818v410h410v-820h-2048z" />
<glyph unicode="F" d="M0 0v410h410v1228h-410v410h2048v-820h-410v410h-818v-410h408v-408h-408v-410h408v-410h-1228z" />
<glyph unicode="G" d="M0 1024q0 204 78 394q76 184 224 328q144 148 328 224q190 78 394 78q208 0 394 -78q162 -68 326 -226q102 -96 206 -284l6 -10h-492l-6 8q-60 76 -196 132q-120 48 -238 48t-238 -48q-112 -48 -196 -132t-132 -196q-48 -120 -48 -238t48 -238q48 -112 132 -196t196 -132 q120 -48 238 -48t238 48q112 48 196 132l68 76l-298 -2v362l820 -2v-1024h-410v204q-36 -48 -220 -126q-190 -78 -394 -78t-394 78q-184 76 -328 224q-148 144 -224 328q-78 190 -78 394z" />
<glyph unicode="H" d="M0 0v2048h410v-820h1228v820h410v-2048h-410v820h-1228v-820h-410z" />
<glyph unicode="I" d="M410 0v410h410v1228h-410v410h1228v-410h-410v-1228h410v-410h-1228z" />
<glyph unicode="J" d="M0 1024h410q0 -98 46 -236q32 -96 134 -198q86 -86 198 -134q116 -46 236 -46t236 46q112 48 198 134t134 198q28 76 46 236v204v820h410v-820v-204q-38 -296 -78 -392q-78 -188 -224 -330q-142 -146 -330 -224t-392 -78t-392 78q-172 70 -330 224q-146 142 -224 330 t-78 392z" />
<glyph unicode="K" d="M0 0v2048h410v-768l766 768h524l-1000 -1024l1172 -1024h-578l-884 768v-768h-410z" />
<glyph unicode="L" d="M0 0v410h410v1228h-410v410h1228v-410h-408v-1228h818v410h410v-820h-2048z" />
<glyph unicode="M" d="M0 0zM0 0v2048h410l614 -820l614 820h410v-2048h-410v1332l-410 -512h-408l-410 512v-1332h-410z" />
<glyph unicode="N" d="M0 0v2048h410l1228 -1422v1012h-410v410h820v-2048h-410l-1228 1422v-1012h410v-410h-820z" />
<glyph unicode="O" d="M0 1024q0 204 78 392t224 330q142 146 330 224t392 78t392 -78t330 -224q146 -142 224 -330t78 -392t-78 -392t-224 -330q-142 -146 -330 -224t-392 -78t-392 78t-330 224q-146 142 -224 330t-78 392zM410 1024q0 -120 46 -236q48 -112 134 -198t198 -134 q116 -46 236 -46t236 46q112 48 198 134t134 198q46 116 46 236t-46 236q-48 112 -134 198t-198 134q-116 46 -236 46t-236 -46q-112 -48 -198 -134t-134 -198q-46 -116 -46 -236z" />
<glyph unicode="P" d="M0 0v410h410v1228h-410v410h1138h90q124 0 236 -48q112 -44 198 -132q88 -92 134 -198q48 -114 48 -236t-48 -236q-46 -112 -134 -198q-86 -88 -198 -134q-54 -22 -236 -46h-98h-310v-410h408v-410h-1228zM820 1228h310h98q54 6 78 18q34 10 68 44q30 34 44 66 q16 38 16 78q0 36 -16 78q-14 32 -44 66q-30 30 -68 44q-38 16 -78 16h-78h-330v-410z" />
<glyph unicode="Q" d="M0 1024q0 206 78 392q76 182 224 330t330 224q186 78 392 78t392 -78q182 -76 330 -224t224 -330q78 -186 78 -392q0 -172 -78 -392q-44 -122 -148 -240l226 -244v-148h-402l-124 130q-266 -130 -498 -130h-32h-26h-24q-132 0 -312 78q-184 80 -328 224 q-150 150 -224 330q-78 190 -78 392zM410 1024q0 -120 46 -236q48 -112 134 -198q92 -92 198 -134q116 -46 236 -46h10h10q4 -2 8 -2q84 0 180 38l-262 288l258 290l314 -334q32 44 50 98q46 168 46 236q0 120 -46 236q-48 112 -134 198t-198 134q-116 46 -236 46t-236 -46 q-112 -48 -198 -134t-134 -198q-46 -116 -46 -236z" />
<glyph unicode="R" d="M0 0v410h410v1228h-410v410h1138h90q188 -26 236 -48q114 -44 198 -132q94 -98 134 -198q48 -114 48 -236t-48 -236q-46 -118 -134 -198q-50 -50 -224 -142l610 -858h-410l-560 820h-258v-410h-2l2 -410h-820zM820 1228h310h98q54 6 78 18q34 10 68 44q30 34 44 66 q16 38 16 78q0 36 -16 78q-14 32 -44 66q-30 30 -68 44q-38 16 -78 16h-78h-330v-410z" />
<glyph unicode="S" d="M0 614v4h410v-4q0 -36 16 -78q16 -40 46 -64q24 -30 64 -46q42 -16 78 -16h820h4q36 0 78 16q38 14 66 46q30 26 44 64q16 34 16 78t-16 78q-14 36 -44 66q-26 26 -66 44t-78 18h-822h-2q-132 0 -236 46q-120 56 -198 134q-88 88 -132 198q-48 114 -48 236t48 236 q44 110 132 198t198 132q114 48 236 48h820q122 0 236 -48q110 -44 198 -132t132 -198q48 -114 48 -236v-4h-410v4q0 36 -16 78q-16 40 -46 64q-24 30 -64 46q-42 16 -78 16h-820q-36 0 -78 -16q-36 -14 -66 -44t-44 -66q-16 -42 -16 -78t16 -78q14 -38 46 -66 q22 -24 64 -44q40 -18 78 -18h2h822q126 0 236 -46q104 -44 198 -134q88 -84 132 -198q48 -114 48 -236t-48 -236q-44 -110 -132 -198t-198 -132q-114 -48 -236 -48h-824q-122 0 -236 48q-110 44 -198 132t-132 198q-48 114 -48 236z" />
<glyph unicode="T" d="M0 1228v820h2048v-820h-410v410h-410v-1228h410v-410h-1228v410h410v1228h-410v-410h-410zM1638 1638zM1638 1638z" />
<glyph unicode="U" d="M-2 1228l2 820h410v-820q0 -156 6 -204q18 -178 40 -236q46 -110 134 -198q86 -86 198 -134q116 -46 236 -46t236 46q112 48 198 134t134 198q28 76 46 236v204v820h410v-820v-204q-38 -296 -78 -392q-78 -188 -224 -330q-142 -146 -330 -224t-392 -78t-392 78t-330 224 q-146 142 -224 330q-38 90 -78 392z" />
<glyph unicode="V" d="M0 2048h410l334 -832l280 -704l272 710l342 826h410l-820 -2048h-408z" />
<glyph unicode="W" d="M-4 2048h454l164 -1638l206 818h408l206 -806l164 1626h450l-144 -2048h-676l-204 614l-204 -614h-676z" />
<glyph unicode="X" d="M0 0l748 1024l-748 1024h552l470 -646l474 646h552l-748 -1024l748 -1024h-552l-474 646l-470 -646h-552z" />
<glyph unicode="Y" d="M0 2048h552l472 -644l472 644h552l-604 -822l-146 -198l-70 -96v-932h-408v928l-74 100z" />
<glyph unicode="Z" d="M0 0v410l1422 1228h-1012v-410h-410v820h2048v-410l-1422 -1228h1012v410h410v-820h-2048zM622 410zM1426 1638zM1638 410zM1638 410z" />
<glyph unicode="a" d="M0 0l820 2048h408l820 -2048h-410l-164 410h-900l-164 -410h-410zM738 820h572l-286 716z" />
<glyph unicode="b" d="M0 614q0 110 48 236q32 86 108 174v2q-74 80 -108 172q-48 122 -48 236q0 118 48 236q44 108 134 198q84 88 198 132q62 24 236 48h90h318h820v-410h-410v-1228h410v-410h-1130h-98q-184 26 -236 48q-114 44 -198 132q-94 98 -134 198q-48 114 -48 236zM410 614 q0 -42 16 -78q14 -32 44 -66q24 -24 68 -44q36 -16 78 -16h98h310v410h-330h-78q-30 0 -78 -18q-34 -10 -68 -44q-26 -26 -44 -66q-16 -38 -16 -78zM410 1432q0 -42 16 -78q14 -32 44 -66q24 -24 68 -44q36 -16 78 -16h98h310v410h-330h-78q-30 0 -78 -18q-34 -10 -68 -44 q-26 -26 -44 -66q-16 -38 -16 -78z" />
<glyph unicode="c" d="M0 820h446l12 -34q44 -108 132 -196t196 -132q114 -48 238 -48t238 48q108 44 196 132t132 196q48 114 48 238t-48 238q-44 108 -132 196t-196 132q-114 48 -238 48t-238 -48q-108 -44 -196 -132t-132 -196l-12 -34h-446v820h410v-204q36 48 220 126q190 78 394 78 t394 -78q186 -80 328 -224q144 -142 224 -328q78 -190 78 -394t-78 -394q-80 -186 -224 -328q-142 -144 -328 -224q-190 -78 -394 -78t-394 78q-190 80 -326 226q-146 136 -226 326z" />
<glyph unicode="d" d="M0 1024q0 204 78 394q80 186 224 328q142 144 328 224q190 78 394 78h1024v-410h-410v-1228h410v-410h-766h-258q-204 0 -394 78q-186 80 -328 224q-144 142 -224 328q-78 190 -78 394zM410 1024q0 -124 48 -238q44 -108 132 -196t196 -132q114 -48 238 -48h98h106v1228 h-204q-124 0 -238 -48q-108 -44 -196 -132t-132 -196q-48 -114 -48 -238z" />
<glyph unicode="e" d="M0 0v820h410v-410h818v410h-408v408h408v410h-818v-410h-410v820h2048v-410h-410v-1228h410v-410h-2048z" />
<glyph unicode="f" d="M0 1228v820h2048v-410h-410v-1228h410v-410h-1228v410h408v410h-408v408h408v410h-818v-410h-410z" />
<glyph unicode="g" d="M0 0v1024l820 2v-362l-298 2l68 -76q84 -84 196 -132q120 -48 238 -48t238 48q112 48 196 132t132 196q48 120 48 238t-48 238q-48 112 -132 196t-196 132q-120 48 -238 48t-238 -48q-136 -56 -196 -132l-6 -8h-492l6 10q104 188 206 284q164 158 326 226q186 78 394 78 q204 0 394 -78q184 -76 328 -224q148 -144 224 -328q78 -190 78 -394t-78 -394q-76 -184 -224 -328q-144 -148 -328 -224q-190 -78 -394 -78t-394 78q-184 78 -220 126v-204h-410z" />
<glyph unicode="h" d="M0 0v2048h410v-820h1228v820h410v-2048h-410v820h-1228v-820h-410z" />
<glyph unicode="i" d="M410 0v410h410v1228h-410v410h1228v-410h-410v-1228h410v-410h-1228z" />
<glyph unicode="j" d="M0 1024v204v820h410v-820v-204q18 -160 46 -236q48 -112 134 -198t198 -134q116 -46 236 -46t236 46q112 48 198 134q102 102 134 198q46 138 46 236h410q0 -204 -78 -392t-224 -330q-158 -154 -330 -224q-188 -78 -392 -78t-392 78t-330 224q-146 142 -224 330 q-40 96 -78 392z" />
<glyph unicode="k" d="M0 0l1172 1024l-1000 1024h524l766 -768v768h410v-2048h-410v768l-884 -768h-578z" />
<glyph unicode="l" d="M0 0v820h410v-410h818v1228h-408v410h1228v-410h-410v-1228h410v-410h-2048z" />
<glyph unicode="m" d="M0 0v2048h410l614 -820l614 820h410v-2048h-410v1332l-410 -512h-408l-410 512v-1332h-410zM2048 0z" />
<glyph unicode="n" d="M0 0v2048h820v-410h-410v-1012l1228 1422h410v-2048h-820v410h410v1012l-1228 -1422h-410z" />
<glyph unicode="o" d="M0 1024q0 204 78 392t224 330q142 146 330 224t392 78t392 -78t330 -224q146 -142 224 -330t78 -392t-78 -392t-224 -330q-142 -146 -330 -224t-392 -78t-392 78t-330 224q-146 142 -224 330t-78 392zM410 1024q0 -120 46 -236q48 -112 134 -198t198 -134 q116 -46 236 -46t236 46q112 48 198 134t134 198q46 116 46 236t-46 236q-48 112 -134 198t-198 134q-116 46 -236 46t-236 -46q-112 -48 -198 -134t-134 -198q-46 -116 -46 -236z" />
<glyph unicode="p" d="M0 1434q0 122 48 236t134 198q86 88 198 132q122 48 236 48h90h1138v-410h-410v-1228h410v-410h-1228v410h408v410h-310h-98q-182 24 -236 46q-112 46 -198 134q-88 86 -134 198q-48 114 -48 236zM410 1434q0 -40 16 -78q14 -32 44 -66q34 -34 68 -44q24 -12 78 -18h98 h310v410h-330h-78q-40 0 -78 -16q-38 -14 -68 -44q-30 -34 -44 -66q-16 -42 -16 -78z" />
<glyph unicode="q" d="M0 0v148l226 244q-104 118 -148 240q-78 220 -78 392q0 206 78 392q76 182 224 330t330 224q186 78 392 78t392 -78q182 -76 330 -224t224 -330q78 -186 78 -392q0 -202 -78 -392q-74 -180 -224 -330q-144 -144 -328 -224q-180 -78 -312 -78h-24h-26h-32q-232 0 -498 130 l-124 -130h-402zM410 1024q0 -68 46 -236q18 -54 50 -98l314 334l258 -290l-262 -288q96 -38 180 -38q4 0 8 2h10h10q120 0 236 46q106 42 198 134q86 86 134 198q46 116 46 236t-46 236q-48 112 -134 198t-198 134q-116 46 -236 46t-236 -46q-112 -48 -198 -134t-134 -198 q-46 -116 -46 -236z" />
<glyph unicode="r" d="M0 0l610 858q-174 92 -224 142q-88 80 -134 198q-48 114 -48 236q0 118 48 236q44 108 134 198q84 88 198 132q62 24 236 48h90h1138v-410h-410v-1228h410v-410h-820l2 410h-2v410h-258l-560 -820h-410zM614 1434q0 -40 16 -78q14 -32 44 -66q34 -34 68 -44 q24 -12 78 -18h98h310v410h-330h-78q-40 0 -78 -16q-38 -14 -68 -44q-30 -34 -44 -66q-16 -42 -16 -78z" />
<glyph unicode="s" d="M0 614q0 122 48 236q44 114 132 198q94 90 198 134q110 46 236 46h822h2q38 0 78 18q42 20 64 44q32 28 46 66q16 42 16 78t-16 78q-14 36 -44 66t-66 44q-42 16 -78 16h-820q-36 0 -78 -16q-40 -16 -64 -46q-30 -24 -46 -64q-16 -42 -16 -78v-4h-410v4q0 122 48 236 q44 110 132 198t198 132q114 48 236 48h820q122 0 236 -48q110 -44 198 -132t132 -198q48 -114 48 -236t-48 -236q-44 -110 -132 -198q-78 -78 -198 -134q-104 -46 -236 -46h-2h-822q-38 0 -78 -18t-66 -44q-30 -30 -44 -66q-16 -34 -16 -78t16 -78q14 -38 44 -64 q28 -32 66 -46q42 -16 78 -16h4h820q36 0 78 16q40 16 64 46q30 24 46 64q16 42 16 78v4h410v-4q0 -122 -48 -236q-44 -110 -132 -198t-198 -132q-114 -48 -236 -48h-824q-122 0 -236 48q-110 44 -198 132t-132 198q-48 114 -48 236z" />
<glyph unicode="t" d="M0 1228v820h2048v-820h-410v410h-410v-1228h410v-410h-1228v410h410v1228h-410v-410h-410zM410 1638zM410 1638z" />
<glyph unicode="u" d="M-2 1024v204v820h410v-820v-204q18 -160 46 -236q48 -112 134 -198t198 -134q116 -46 236 -46t236 46q112 48 198 134q88 88 134 198q22 58 40 236q6 48 6 204v820h410l2 -820l-2 -204q-40 -302 -78 -392q-78 -188 -224 -330q-142 -146 -330 -224t-392 -78t-392 78 t-330 224q-146 142 -224 330q-40 96 -78 392z" />
<glyph unicode="v" d="M0 2048h410l342 -826l272 -710l280 704l334 832h410l-820 -2048h-408z" />
<glyph unicode="w" d="M-4 2048h450l164 -1626l206 806h408l206 -818l164 1638h454l-148 -2048h-676l-204 614l-204 -614h-676z" />
<glyph unicode="x" d="M0 0l748 1024l-748 1024h552l474 -646l470 646h552l-748 -1024l748 -1024h-552l-470 646l-474 -646h-552z" />
<glyph unicode="y" d="M0 2048h552l472 -644l472 644h552l-746 -1020l-74 -100v-928h-408v932l-70 96l-146 198z" />
<glyph unicode="z" d="M0 0v820h410v-410h1012l-1422 1228v410h2048v-820h-410v410h-1012l1422 -1228v-410h-2048zM410 410zM410 410zM622 1638zM1426 410z" />
<glyph unicode="&#x2000;" horiz-adv-x="1025" />
<glyph unicode="&#x2001;" horiz-adv-x="2050" />
<glyph unicode="&#x2002;" horiz-adv-x="1025" />
<glyph unicode="&#x2003;" horiz-adv-x="2050" />
<glyph unicode="&#x2004;" horiz-adv-x="683" />
<glyph unicode="&#x2005;" horiz-adv-x="512" />
<glyph unicode="&#x2006;" horiz-adv-x="341" />
<glyph unicode="&#x2007;" horiz-adv-x="341" />
<glyph unicode="&#x2008;" horiz-adv-x="256" />
<glyph unicode="&#x2009;" horiz-adv-x="410" />
<glyph unicode="&#x200a;" horiz-adv-x="113" />
<glyph unicode="&#x202f;" horiz-adv-x="410" />
<glyph unicode="&#x205f;" horiz-adv-x="512" />
<glyph unicode="&#x25fc;" horiz-adv-x="2050" d="M0 0v2050h2050v-2050h-2050z" />
</font>
</defs>
</svg>
