<?xml version="1.0" encoding="utf-8"?>
<!-- Generator: Adobe Illustrator 19.1.0, SVG Export Plug-In . SVG Version: 6.00 Build 0)  -->
<svg version="1.1" id="Layer_1" xmlns="http://www.w3.org/2000/svg" xmlns:xlink="http://www.w3.org/1999/xlink" x="0px" y="0px"
	 viewBox="0 0 180 180" style="enable-background:new 0 0 180 180;" xml:space="preserve">
<style type="text/css">
	.st0{fill:#F45945;}
</style>
<g>
	<path class="st0" d="M22.4,65.2l-2.4,6.5l-2.3-0.9l0.9-2.3l-7-2.6l-0.9,2.3l-2.3-0.9l1.8-4.7l0.7-1.8l0.2-0.5
		c0.4-0.7,0.6-1.1,0.8-1.2c0.3-0.4,0.7-0.7,1.2-0.8c0.5-0.2,1-0.3,1.4-0.3c0.5,0,1,0.1,1.5,0.2c0.4,0.2,0.8,0.4,1.2,0.8
		c0.3,0.3,0.6,0.6,0.8,1l0,0c0.4-0.2,0.9-0.2,1.2-0.2c0.6,0,1,0.1,1.5,0.2c0.4,0.2,0.9,0.4,1.2,0.8c0.3,0.3,0.6,0.7,0.8,1.2
		c0.2,0.4,0.3,0.9,0.3,1.4c0,0.3-0.1,0.7-0.2,1.5L22.4,65.2z M13.2,61.2l-0.2,0.4l-0.7,1.9l2.3,0.9l0.7-1.8l0.2-0.6
		c0.1-0.2,0.1-0.3,0.1-0.5c0-0.2,0-0.4-0.1-0.5c-0.1-0.2-0.2-0.3-0.3-0.4c-0.1-0.1-0.3-0.2-0.4-0.3c-0.2-0.1-0.3-0.1-0.5-0.1
		c-0.2,0-0.3,0-0.5,0.1c-0.2,0.1-0.3,0.2-0.4,0.3C13.4,60.9,13.3,61,13.2,61.2z M17.9,62.9l-0.2,0.4L17,65.2l2.3,0.9l0.7-1.8
		l0.2-0.6c0.1-0.2,0.1-0.3,0.1-0.5c0-0.2,0-0.4-0.1-0.5c-0.1-0.2-0.2-0.3-0.3-0.4c-0.1-0.1-0.3-0.2-0.4-0.3
		c-0.2-0.1-0.3-0.1-0.5-0.1c-0.2,0-0.3,0-0.5,0.1c-0.2,0.1-0.3,0.2-0.4,0.3C18,62.7,17.9,62.8,17.9,62.9z"/>
	<path class="st0" d="M16.9,48.4c0.1-0.8,0.4-1.6,0.9-2.3c0.4-0.7,1-1.3,1.7-1.8c0.7-0.5,1.4-0.8,2.2-1c0.8-0.2,1.6-0.2,2.4-0.1
		c0.8,0.1,1.6,0.4,2.3,0.9c0.7,0.4,1.3,1,1.8,1.7c0.5,0.7,0.8,1.4,1,2.2c0.2,0.8,0.2,1.6,0.1,2.4c-0.1,0.8-0.4,1.6-0.9,2.3
		c-0.4,0.7-1,1.3-1.7,1.8c-0.7,0.5-1.4,0.8-2.2,1c-0.8,0.2-1.6,0.2-2.4,0.1s-1.6-0.4-2.3-0.9c-0.7-0.4-1.3-1-1.8-1.7
		c-0.5-0.7-0.8-1.4-1-2.2C16.8,50.1,16.7,49.2,16.9,48.4z M19.9,47.5c-0.3,0.4-0.4,0.9-0.5,1.4c-0.1,0.5-0.1,1,0,1.5
		c0.1,0.5,0.3,0.9,0.6,1.3c0.3,0.4,0.7,0.7,1.1,1c0.4,0.3,0.9,0.4,1.4,0.5c0.5,0.1,1,0.1,1.5,0c0.5-0.1,0.9-0.3,1.3-0.6
		c0.4-0.3,0.7-0.7,1-1.1c0.3-0.4,0.4-0.9,0.5-1.4c0.1-0.5,0.1-1,0-1.5c-0.1-0.5-0.3-0.9-0.6-1.3c-0.3-0.4-0.7-0.7-1.1-1
		s-0.9-0.4-1.4-0.5c-0.5-0.1-1-0.1-1.5,0s-0.9,0.3-1.3,0.6C20.5,46.7,20.1,47.1,19.9,47.5z"/>
	<path class="st0" d="M23.6,37.1l8.6-9.1l3.6,3.5l-1.7,1.8l-1.8-1.7l-1.7,1.8l5.4,5.2l1.7-1.8l1.8,1.7L34.4,44l-1.8-1.7l1.7-1.8
		l-5.4-5.2l-1.7,1.8l1.8,1.7l-1.7,1.8L23.6,37.1z"/>
	<path class="st0" d="M47.1,17.1l2.2-1.2l10.4,8.5l-2.2,1.2L55.4,24l-4.8,2.6l0.3,2.7l-2.2,1.2L47.1,17.1z M49.7,19.3l0.6,4.7
		l3.1-1.7L49.7,19.3z"/>
	<path class="st0" d="M66.3,16.7l-1.5,0.5l0.7,2.4l0,0l0.8,2.4l-4.8,1.5l-0.7-2.4l2.4-0.7l-2.2-7.2l-2.4,0.7l-0.7-2.4l6.6-2.1
		l0.5-0.2c0.8-0.1,1.2-0.2,1.5-0.1c0.5,0,1,0.2,1.4,0.4c0.5,0.3,0.9,0.6,1.1,0.9c0.3,0.4,0.6,0.8,0.7,1.3c0.1,0.5,0.2,1,0.1,1.5
		c0,0.5-0.2,1-0.4,1.4c-0.1,0.3-0.5,0.7-1,1.2l5.1,3.9L71,20.5L66.3,16.7z M65.7,11.7l-0.5,0.1l-1.9,0.6l0.7,2.4l1.8-0.6l0.6-0.2
		c0.2-0.1,0.3-0.2,0.4-0.2c0.1-0.1,0.2-0.2,0.3-0.4c0.1-0.2,0.1-0.3,0.1-0.5c0-0.2,0-0.3,0-0.5c0-0.1-0.1-0.3-0.2-0.4
		c-0.1-0.1-0.2-0.2-0.4-0.3c-0.2-0.1-0.3-0.1-0.5-0.1C66,11.6,65.8,11.6,65.7,11.7z"/>
	<path class="st0" d="M74.1,6.7l12.4-1.2l0.5,5l-2.5,0.2l-0.2-2.5l-2.5,0.2l0.7,7.5l2.5-0.2l0.2,2.5l-7.5,0.7l-0.2-2.5l2.5-0.2
		l-0.7-7.5l-2.5,0.2l0.2,2.5l-2.5,0.2L74.1,6.7z"/>
	<path class="st0" d="M106.1,19.8l-4.9-1c-0.5-0.1-0.9-0.3-1.3-0.6c-0.4-0.3-0.7-0.6-1-1s-0.5-0.9-0.5-1.3c-0.1-0.5-0.1-1,0-1.5l0,0
		l2.4,0.5l0,0c0,0.1,0,0.3,0,0.5c0,0.2,0.1,0.3,0.2,0.4c0.1,0.1,0.2,0.3,0.3,0.4c0.2,0.1,0.3,0.2,0.4,0.2l4.9,1l0,0
		c0.1,0,0.3,0,0.5,0c0.2,0,0.3-0.1,0.5-0.2c0.1-0.1,0.3-0.2,0.3-0.3c0.1-0.1,0.2-0.3,0.2-0.4c0-0.2,0-0.3,0-0.5
		c0-0.2-0.1-0.3-0.2-0.4c-0.1-0.1-0.2-0.2-0.3-0.3c-0.1-0.1-0.3-0.2-0.4-0.2l-4.9-1l0,0c-0.5-0.1-1-0.3-1.4-0.6
		c-0.4-0.3-0.8-0.7-1-1c-0.3-0.4-0.5-0.9-0.5-1.3c-0.1-0.5-0.1-1,0-1.5s0.3-0.9,0.6-1.4c0.3-0.4,0.6-0.7,1-1s0.9-0.5,1.3-0.5
		c0.5-0.1,1-0.1,1.5,0l4.9,1c0.5,0.1,0.9,0.3,1.3,0.6c0.4,0.3,0.7,0.6,1,1s0.5,0.9,0.5,1.3c0.1,0.5,0.1,1,0,1.5l0,0l-2.5-0.5l0,0
		c0-0.1,0-0.3,0-0.5c0-0.2-0.1-0.3-0.2-0.4c-0.1-0.1-0.2-0.3-0.3-0.4c-0.2-0.1-0.3-0.2-0.4-0.2l-4.9-1c-0.1,0-0.3,0-0.5,0
		c-0.2,0-0.3,0.1-0.4,0.2c-0.1,0.1-0.3,0.2-0.3,0.3c-0.1,0.2-0.2,0.3-0.2,0.4c0,0.1,0,0.3,0,0.5c0,0.2,0.1,0.3,0.2,0.5
		c0.1,0.1,0.2,0.2,0.3,0.3c0.1,0.1,0.3,0.2,0.4,0.2l0,0l4.9,1c0.5,0.1,1,0.3,1.4,0.6c0.4,0.3,0.7,0.6,1,1c0.3,0.4,0.5,0.9,0.5,1.3
		c0.1,0.5,0.1,1,0,1.5s-0.3,0.9-0.6,1.4c-0.3,0.4-0.6,0.7-1,1c-0.4,0.3-0.9,0.5-1.3,0.5C107,19.9,106.6,19.9,106.1,19.8z"/>
	<path class="st0" d="M122.5,20.4l0.1-0.2l2.5,1.1l-0.9,0.9c-0.6,0.6-1.3,1-2.1,1.3c-0.7,0.3-1.5,0.5-2.4,0.5
		c-0.8,0-1.6-0.2-2.4-0.5c-0.8-0.3-1.4-0.8-2-1.4c-0.6-0.6-1-1.3-1.3-2c-0.3-0.8-0.5-1.6-0.5-2.4c0-0.8,0.2-1.6,0.5-2.4
		c0.3-0.8,0.8-1.4,1.4-2c0.6-0.6,1.3-1,2-1.3c0.8-0.3,1.6-0.5,2.4-0.5c0.8,0,1.6,0.2,2.4,0.5c0.8,0.3,1.4,0.8,2,1.4
		c0.6,0.6,0.9,1,0.9,1.2l0.5-1.1l2.3,1l-2,4.6l-2.5-1.1l0-0.2c0-0.5-0.1-0.9-0.3-1.4c-0.2-0.5-0.4-0.9-0.8-1.2
		c-0.3-0.4-0.8-0.6-1.2-0.8c-0.5-0.2-0.9-0.3-1.4-0.3c-0.5,0-0.9,0.1-1.4,0.3c-0.5,0.2-0.9,0.4-1.2,0.8c-0.4,0.3-0.6,0.8-0.8,1.2
		s-0.3,0.9-0.3,1.4c0,0.5,0.1,0.9,0.3,1.4c0.2,0.5,0.4,0.9,0.8,1.2c0.3,0.4,0.8,0.6,1.2,0.8c0.5,0.2,0.9,0.3,1.4,0.3
		c0.5,0,0.9-0.1,1.4-0.3S122.2,20.7,122.5,20.4z"/>
	<path class="st0" d="M132.2,16.4l2.1,1.4l-2.9,4.1l6.1,4.3l2.9-4.1l2.1,1.4l-7.2,10.2l-2.1-1.4l2.9-4.1l-6.1-4.3l-2.9,4.1l-2.1-1.4
		L132.2,16.4z"/>
	<path class="st0" d="M148.3,29.4c0.8,0.3,1.4,0.8,2,1.4c0.6,0.6,1,1.3,1.3,2.1c0.3,0.8,0.4,1.6,0.4,2.4c0,0.8-0.2,1.6-0.5,2.4
		s-0.8,1.4-1.4,2c-0.6,0.6-1.3,1-2.1,1.3c-0.8,0.3-1.6,0.4-2.4,0.4c-0.8,0-1.6-0.2-2.4-0.5c-0.8-0.3-1.4-0.8-2-1.4
		c-0.6-0.6-1-1.3-1.3-2.1s-0.4-1.6-0.4-2.4c0-0.8,0.2-1.6,0.5-2.4c0.3-0.8,0.8-1.4,1.4-2c0.6-0.6,1.3-1,2.1-1.3
		c0.8-0.3,1.6-0.4,2.4-0.4C146.8,28.9,147.6,29.1,148.3,29.4z M148.5,32.5c-0.3-0.4-0.7-0.6-1.2-0.8c-0.5-0.2-0.9-0.3-1.4-0.3
		c-0.5,0-1,0.1-1.4,0.2c-0.5,0.2-0.9,0.5-1.2,0.8c-0.4,0.3-0.6,0.7-0.8,1.2c-0.2,0.5-0.3,0.9-0.3,1.4c0,0.5,0.1,1,0.2,1.4
		c0.2,0.5,0.5,0.9,0.8,1.2c0.3,0.4,0.7,0.6,1.2,0.8c0.5,0.2,0.9,0.3,1.4,0.3c0.5,0,1-0.1,1.4-0.2c0.5-0.2,0.9-0.5,1.2-0.8
		s0.6-0.7,0.8-1.2c0.2-0.5,0.3-0.9,0.3-1.4s-0.1-1-0.2-1.4C149.1,33.3,148.9,32.9,148.5,32.5z"/>
	<path class="st0" d="M159.2,42.3c0.7,0.5,1.2,1.1,1.7,1.8c0.4,0.7,0.7,1.5,0.9,2.3c0.1,0.8,0.1,1.6-0.1,2.4c-0.2,0.8-0.5,1.6-1,2.2
		c-0.5,0.7-1.1,1.2-1.8,1.7c-0.7,0.4-1.5,0.7-2.3,0.9s-1.6,0.1-2.4-0.1c-0.8-0.2-1.6-0.5-2.2-1c-0.7-0.5-1.2-1.1-1.7-1.8
		c-0.4-0.7-0.7-1.5-0.9-2.3c-0.1-0.8-0.1-1.6,0.1-2.4c0.2-0.8,0.5-1.6,1-2.2s1.1-1.2,1.8-1.7c0.7-0.4,1.5-0.7,2.3-0.9
		c0.8-0.1,1.6-0.1,2.4,0.1C157.8,41.5,158.6,41.8,159.2,42.3z M158.8,45.4c-0.3-0.4-0.6-0.8-1-1.1c-0.4-0.3-0.9-0.5-1.3-0.6
		c-0.5-0.1-1-0.1-1.5,0c-0.5,0.1-1,0.3-1.4,0.5c-0.4,0.3-0.8,0.6-1.1,1c-0.3,0.4-0.5,0.9-0.6,1.3c-0.1,0.5-0.1,1,0,1.5
		c0.1,0.5,0.3,1,0.5,1.4c0.3,0.4,0.6,0.8,1,1.1c0.4,0.3,0.9,0.5,1.3,0.6c0.5,0.1,1,0.1,1.5,0c0.5-0.1,1-0.3,1.4-0.5
		c0.4-0.3,0.8-0.6,1.1-1c0.3-0.4,0.5-0.9,0.6-1.3s0.1-1,0-1.5C159.2,46.2,159.1,45.8,158.8,45.4z"/>
	<path class="st0" d="M166.5,53.3l2.6,7l-2.3,0.9l-0.9-2.3l-7,2.6l1.8,4.7l2.3-0.9l0.9,2.3l-4.7,1.8l-4.4-11.7l2.3-0.9l0.9,2.3
		l7-2.6l-0.9-2.3L166.5,53.3z"/>
</g>
<g>
	<g>
		<path class="st0" d="M18.2,92.7l1.8,12.4l-5,0.7l-0.4-2.5l2.5-0.4l-0.4-2.5l-7.4,1.1l0.4,2.5l-2.5,0.4L6.1,97l2.5-0.4L9,99.1
			l7.4-1.1L16,95.5l-2.5,0.4l-0.4-2.5L18.2,92.7z"/>
		<path class="st0" d="M20.6,109l1,2.6l-8.9,4.6l5.1-0.6l0.9,2.3l-4.1,3l9.6-2.7l1,2.6l-12,3.7l-1.5-3.8l3-2.5l-3.9,0.2l-1.5-3.8
			L20.6,109z"/>
		<path class="st0" d="M26.8,124.3l7.1,10.3l-4.1,2.8l-1.4-2.1l2.1-1.4l-2.8-4.1l-2.1,1.4l1.4,2.1l-2.1,1.4l-1.4-2.1l-2.1,1.4
			l2.8,4.1l2.1-1.4l1.4,2.1l-4.1,2.8l-7.1-10.3l2.1-1.4L20,132l6.2-4.2l-1.4-2.1L26.8,124.3z"/>
		<path class="st0" d="M36.2,137.7l1.8,1.7l-0.3,11.5l4.2-4.6l-1.8-1.7l1.7-1.8l3.7,3.4l-8.4,9.2l-1.8-1.7l0.3-11.5l-4.2,4.6
			l1.8,1.7l-1.7,1.8l-3.7-3.4L36.2,137.7z"/>
		<path class="st0" d="M48.5,148.7l10.9,6.1l-2.5,4.4l-2.2-1.2l1.2-2.2l-2.2-1.2l-3.7,6.5l2.2,1.2l-1.2,2.2l-6.5-3.7l1.2-2.2
			l2.2,1.2l3.7-6.5l-2.2-1.2l-1.2,2.2L46,153L48.5,148.7z"/>
		<path class="st0" d="M68.2,165.2l-1.6,5.5l-2.4-0.7l1.6-5.4l-0.3-0.7l-2.6-7.2l3.2,0.9l1.7,4.6l3.9-3l3.2,0.9l-4.9,3.8l-1.2,0.9
			L68.2,165.2z"/>
		<path class="st0" d="M97,173.7l-5,0.3c-0.5,0-1,0-1.5-0.2c-0.5-0.1-0.9-0.4-1.3-0.7s-0.7-0.7-0.9-1.2c-0.2-0.5-0.4-0.9-0.4-1.4
			l0,0l2.5-0.2l0,0c0,0.1,0.1,0.3,0.1,0.5c0.1,0.2,0.2,0.3,0.3,0.4c0.1,0.1,0.2,0.2,0.4,0.3c0.2,0.1,0.3,0.1,0.5,0.1l5-0.3l0,0
			c0.1,0,0.3-0.1,0.5-0.1c0.2-0.1,0.3-0.2,0.4-0.3c0.1-0.1,0.2-0.2,0.2-0.4c0.1-0.1,0.1-0.3,0.1-0.5c0-0.2-0.1-0.3-0.1-0.5
			c-0.1-0.1-0.2-0.3-0.3-0.4c-0.1-0.1-0.3-0.2-0.4-0.2c-0.2-0.1-0.3-0.1-0.5-0.1l-5,0.3l0,0c-0.5,0-1,0-1.5-0.2
			c-0.5-0.2-0.9-0.4-1.3-0.7c-0.4-0.3-0.7-0.7-0.9-1.2c-0.2-0.4-0.4-0.9-0.4-1.4c0-0.5,0-1,0.2-1.5c0.1-0.5,0.4-0.9,0.7-1.3
			c0.3-0.4,0.7-0.7,1.2-0.9c0.4-0.2,0.9-0.4,1.4-0.4l5-0.3c0.5,0,1,0,1.5,0.2c0.5,0.1,0.9,0.4,1.3,0.7c0.4,0.3,0.7,0.7,0.9,1.2
			c0.2,0.5,0.4,0.9,0.4,1.4l0,0l-2.5,0.2l0,0c0-0.1-0.1-0.3-0.1-0.5c-0.1-0.2-0.2-0.3-0.3-0.4c-0.1-0.1-0.2-0.2-0.4-0.3
			c-0.2-0.1-0.3-0.1-0.5-0.1l-5,0.3c-0.1,0-0.3,0.1-0.5,0.1c-0.1,0.1-0.3,0.2-0.4,0.3c-0.1,0.1-0.2,0.3-0.2,0.4
			c-0.1,0.2-0.1,0.3-0.1,0.5c0,0.1,0.1,0.3,0.1,0.5c0.1,0.2,0.2,0.3,0.3,0.4c0.1,0.1,0.2,0.2,0.4,0.2c0.2,0.1,0.3,0.1,0.5,0.1l0,0
			l5-0.3c0.5,0,1,0,1.5,0.2c0.4,0.2,0.9,0.4,1.3,0.7c0.4,0.3,0.7,0.7,0.9,1.2c0.2,0.5,0.4,0.9,0.4,1.4c0,0.5,0,1-0.2,1.5
			c-0.1,0.5-0.4,0.9-0.7,1.3c-0.3,0.4-0.7,0.7-1.2,0.9C98,173.6,97.5,173.7,97,173.7z"/>
		<path class="st0" d="M109.8,171.8l-0.7-2.4l2.4-0.7l-2.2-7.2l-2.4,0.7l-0.7-2.4l7.2-2.2l0.7,2.4l-2.4,0.7l2.2,7.2l2.4-0.7l0.7,2.4
			L109.8,171.8z"/>
		<path class="st0" d="M125.8,166.4l0.8-7.7l-7.1-3.1l2.9-1.7l4.5,2l0.5-4.9l2.9-1.7l-0.8,7.7l7.1,3.1l-2.9,1.7l-4.5-2l-0.5,4.9
			L125.8,166.4z"/>
		<path class="st0" d="M133.6,147.2l9.1-8.6l3.4,3.6l-1.8,1.7l-1.7-1.8l-1.8,1.7l5.1,5.5l1.8-1.7l1.7,1.8l-5.5,5.1l-1.7-1.8l1.8-1.7
			l-5.1-5.5l-1.8,1.7l1.7,1.8l-1.8,1.7L133.6,147.2z"/>
		<path class="st0" d="M145.4,135.8l6.9-10.4l4.2,2.8l-1.4,2.1l-2.1-1.4l-2.8,4.2l2.1,1.4l1.4-2.1l2.1,1.4l-1.4,2.1l2.1,1.4l2.8-4.2
			l-2.1-1.4l1.4-2.1l4.2,2.8l-6.9,10.4l-2.1-1.4l1.4-2.1l-6.2-4.1l-1.4,2.1L145.4,135.8z"/>
		<path class="st0" d="M154.4,122l4.4-11.7l4.7,1.7l-0.9,2.3l-2.3-0.9l-1.7,4.7l2.3,0.9l0.9-2.3l2.3,0.9l-0.9,2.3l2.3,0.9l1.7-4.7
			l-2.3-0.9l0.9-2.3l4.7,1.7l-4.4,11.7l-2.3-0.9l0.9-2.3l-7-2.6l-0.9,2.3L154.4,122z"/>
		<path class="st0" d="M160,106.5l0.3-2.5l9.6-6.3l-6.1-0.8l-0.3,2.5l-2.5-0.3l0.6-5l12.4,1.6l-0.3,2.5l-9.6,6.3l6.1,0.8l0.3-2.5
			l2.5,0.3l-0.6,5L160,106.5z"/>
	</g>
</g>
<path class="st0" d="M90,27c-34.8,0-63,28.2-63,63s28.2,63,63,63s63-28.2,63-63S124.8,27,90,27z M90,135c-24.9,0-45-20.1-45-45
	c0-24.9,20.1-45,45-45s45,20.1,45,45C135,114.9,114.9,135,90,135z"/>
</svg>
